<?xml version="1.0" encoding="utf-8"?>
<!-- Generator: Adobe Illustrator 18.0.0, SVG Export Plug-In . SVG Version: 6.00 Build 0)  -->
<!DOCTYPE svg PUBLIC "-//W3C//DTD SVG 1.1//EN" "http://www.w3.org/Graphics/SVG/1.1/DTD/svg11.dtd">
<svg version="1.1" id="Layer_1" xmlns="http://www.w3.org/2000/svg" xmlns:xlink="http://www.w3.org/1999/xlink" x="0px" y="0px"
	 viewBox="0 0 863.5 700.2" enable-background="new 0 0 863.5 700.2" xml:space="preserve">
<polygon fill="#4C2F83" points="363.1,2.7 362.4,2 358.7,5.6 355,2 354.3,2.7 358.7,7 358.7,7 358.7,7 "/>
<polygon fill="#4C2F83" points="356.9,54.8 356.2,55.5 359.8,59.2 356.2,62.9 356.9,63.6 361.2,59.2 361.2,59.2 361.2,59.2 "/>
<polygon points="363.1,21.8 362.4,21.1 358.7,24.7 355,21.1 354.3,21.8 358.7,26.1 358.7,26.1 358.7,26.1 "/>
<polygon fill="#D1D3D4" points="363.1,38.4 362.4,37.7 358.7,41.3 355,37.7 354.3,38.4 358.7,42.7 358.7,42.7 358.7,42.7 "/>
<path fill="#FFFFFF" d="M317.2,448.9v-12.1l8.4,13.5h0.8v-14.7l1.4-1.4h-4.2l1.4,1.4v10.2l-7.3-11.6h-3.3l1.4,1.4v13.3l-1.4,1.4h4.2
	L317.2,448.9L317.2,448.9z M304.7,449.4c-3.2,0-4.3-3.9-4.3-7.2c0-3.3,1.1-7.2,4.3-7.2c3.3,0,4.4,3.9,4.4,7.2
	C309.1,445.5,308,449.4,304.7,449.4 M298.3,442.2c0,4.1,2.3,8.4,6.4,8.4c4.1,0,6.5-4.3,6.5-8.4c0-4.1-2.3-8.4-6.5-8.4
	C300.6,433.8,298.3,438.1,298.3,442.2 M291,449v-13.6h3.1l1.7,1.7v-2.9h-11.3v2.9l1.7-1.7h3V449l-1.3,1.3h4.3L291,449L291,449z
	 M279.1,442.9v5.2c-0.4,0.4-1.1,1.1-2.6,1.1c-3.6,0-5.4-3.6-5.4-7.1c0-3.5,2.3-7.1,5.4-7.1c0.8,0,1.4,0.2,2,0.8l1.8,1.7v-2.8
	c-1-0.5-1.9-0.9-3.7-0.9c-4.4,0-7.5,3.9-7.5,8.3c0,4.3,3.1,8.3,7.5,8.3c2.5,0,3.6-0.6,4.4-1.2v-6.4l1.3-1.3h-4.3L279.1,442.9
	L279.1,442.9z M255.2,448.9v-12.1l8.5,13.5l0.7,0v-14.7l1.4-1.4h-4.2l1.4,1.4v10.2l-7.3-11.6h-3.3l1.4,1.4v13.3l-1.4,1.4h4.2
	L255.2,448.9L255.2,448.9z M243.6,434.2l1.3,1.3V449l-1.3,1.3h4.3l-1.3-1.3v-13.5l1.3-1.3H243.6L243.6,434.2z M229.3,442.2h6.8v6.8
	l-1.3,1.3h4.3l-1.3-1.3v-13.5l1.3-1.3h-4.3l1.3,1.3v5.5h-6.8v-5.5l1.3-1.3h-4.3l1.3,1.3V449l-1.3,1.3h4.3l-1.3-1.3V442.2
	L229.3,442.2z M222,445.8c0-1.6-0.7-2.6-1.5-3.1l-3.3-2.4c-1.2-0.8-1.8-1.9-1.8-2.8c0-1.7,1.4-2.3,2.3-2.3c0.5,0,0.8,0.2,1,0.2
	l1.4,1.5l1.5-2.2l-3.2-0.6c-0.2-0.1-0.4-0.1-0.8-0.1c-2.8,0-4.1,2.4-4.1,4c0,1.2,0.6,2.6,2.1,3.7l3.3,2.4c0.9,0.6,1.1,1.6,1.1,2.4
	c0,1.4-0.8,2.9-2.7,2.9c-0.4,0-0.8-0.1-1.1-0.2l-1.5-1.8l-1.4,2.5l3.1,0.6c0,0,0.5,0.1,1,0.1C219.5,450.5,222,448.9,222,445.8
	 M204,437.8l2.2,6.7h-4.5L204,437.8L204,437.8z M200.1,449l1.2-3.4h5.3l1.1,3.4l-1.3,1.3h4.6l-1.3-1.3l-5-14.8h-0.8l-5.1,14.8
	l-1.3,1.3h3.9L200.1,449L200.1,449z M183,450.3l3.7-11.7l3.6,11.7h0.8l4.7-14.8l1.3-1.3h-3.9l1.3,1.3l-3.4,11.1l-3.3-11.1l1.3-1.3
	h-4.6l1.3,1.3l0.3,1.1l-3.1,10.1l-3.3-11.1l1.3-1.3h-4.6l1.3,1.3l4.5,14.8L183,450.3L183,450.3z M159.1,440.6l-0.6,0.6l0.1,0.2h1.9
	c-0.3,2-0.6,3.8-1,6.7c-0.6,4.2-1.1,5.7-1.6,6.1c-0.1,0.1-0.4,0.2-0.6,0.2c-0.3,0-0.7-0.2-1-0.3c-0.3-0.1-0.5,0-0.6,0.2
	c-0.2,0.2-0.4,0.5-0.4,0.8c0,0.5,0.6,0.7,1,0.7c0.4,0,1.5-0.4,2.5-1.6c0.8-1,1.8-3.2,2.7-8.3c0.2-1,0.3-1.9,0.7-4.4l2.3-0.2l0.5-0.6
	h-2.7c0.7-4.2,1.2-5.5,2.2-5.5c0.7,0,1.2,0.3,1.7,0.8c0.2,0.2,0.4,0.2,0.6,0c0.2-0.2,0.5-0.5,0.5-0.8c0-0.5-0.6-1-1.4-1
	c-1.3,0-2.7,0.8-3.6,1.9c-0.9,1.1-1.5,2.8-1.8,4.6L159.1,440.6L159.1,440.6L159.1,440.6z M148.9,446.6c0-3.4,1.7-5.2,2.4-5.5
	c0.2-0.1,0.5-0.2,0.7-0.2c1.1,0,1.8,0.9,1.8,2.6c0,3-1.5,5.6-2.5,5.9c-0.2,0.1-0.5,0.2-0.7,0.2C149.4,449.6,148.9,448.3,148.9,446.6
	 M152.7,440.1c-0.6,0-1.5,0.3-2.4,0.8c-1.6,0.9-3.3,3-3.3,6.2c0,1.6,0.7,3.4,2.9,3.4c1,0,2.4-0.7,3.4-1.5c1.5-1.4,2.4-3.7,2.4-5.7
	C155.7,441.4,154.7,440.1,152.7,440.1 M126.4,435.5l4.1,7.3v6.2l-1.3,1.3h4.3l-1.3-1.3v-6.2l4.1-7.3l1.3-1.3h-4l1.3,1.3l-3.4,6
	l-3.2-6l1.3-1.3h-4.6L126.4,435.5L126.4,435.5z M118,449v-13.6h3.1l1.7,1.7v-2.9h-11.3v2.9l1.7-1.7h3V449l-1.3,1.3h4.3L118,449
	L118,449z M103.3,434.2l1.3,1.3V449l-1.3,1.3h4.3l-1.3-1.3v-13.5l1.3-1.3H103.3L103.3,434.2z M98.7,445.8c0-1.6-0.7-2.6-1.5-3.1
	l-3.3-2.4c-1.2-0.8-1.8-1.9-1.8-2.8c0-1.7,1.4-2.3,2.3-2.3c0.5,0,0.8,0.2,1,0.2l1.4,1.5l1.5-2.2l-3.2-0.6c-0.2-0.1-0.4-0.1-0.8-0.1
	c-2.8,0-4.1,2.4-4.1,4c0,1.2,0.6,2.6,2.1,3.7l3.3,2.4c0.9,0.6,1.1,1.6,1.1,2.4c0,1.4-0.8,2.9-2.7,2.9c-0.4,0-0.8-0.1-1.1-0.2
	l-1.5-1.8l-1.4,2.5l3.1,0.6c0,0,0.5,0.1,1,0.1C96.1,450.5,98.7,448.9,98.7,445.8 M78,435.4h2c1.7,0,3.1,1.5,3.1,3.2
	c0,1.7-1.4,3-3.1,3h-2V435.4L78,435.4z M78,449v-6.2h2.4l3.9,7.5H87l-1.3-1.3l-3.6-6.6c1.8-0.5,3-2.2,3-3.8c0-2.7-2.5-4.5-5.2-4.5
	h-5l1.3,1.3V449l-1.3,1.3h4.3L78,449L78,449z M70.7,450.3v-2.9l-1.7,1.7h-4.9v-6.8h3.6l1.3,1.3v-3.8l-1.3,1.3h-3.6v-5.7H69l1.7,1.7
	v-2.9h-9.6l1.3,1.3V449l-1.3,1.3L70.7,450.3L70.7,450.3z M49.8,434.2h-4.6l1.3,1.3l4.5,14.8h0.8l4.7-14.8l1.3-1.3H54l1.3,1.3
	l-3.4,11.1l-3.3-11.1L49.8,434.2L49.8,434.2z M37.3,434.2l1.3,1.3V449l-1.3,1.3h4.3l-1.3-1.3v-13.5l1.3-1.3H37.3z M22.3,448.9v-12.1
	l8.6,13.5h0.6v-14.7l1.4-1.4h-4.2l1.4,1.4v10.2l-7.3-11.6h-3.3l1.4,1.4v13.3l-1.4,1.4h4.2L22.3,448.9L22.3,448.9z M4.2,446
	c0,2.6,2.2,4.7,5,4.7c2.6,0,5.2-1.9,5.2-4.7v-10.4l1.4-1.4h-4.2l1.4,1.4V446c0,1.9-1.5,3.3-3.3,3.3c-1.9,0-3.6-1.4-3.6-3.3v-10.4
	l1.4-1.4H2.8l1.4,1.4L4.2,446L4.2,446z"/>
<path fill="#FFFFFF" d="M88.3,9.1v14.6h10.2L87.1,66.3c0,0-14-56.4-14.2-57.2H58.1c-0.2,0.8-15.4,57.2-15.4,57.2L32.1,23.7h10.7V9.1
	H0v14.6h9.5c0,0,16.4,65.5,16.6,66.3h23c0.2-0.8,11-41.7,11-41.7c6.8,27.3,6.5,25.6,10.4,41.7h23c0.2-0.8,17.4-66.3,17.4-66.3h9.4
	V9.1L88.3,9.1L88.3,9.1z"/>
<polygon fill="#D2D3D4" points="591.5,5.1 583.2,22.7 584.3,22.7 592.7,5.1 "/>
<polygon fill="#919396" points="619.8,3.6 607.7,36 608.2,36 620.3,3.6 "/>
<polygon fill="#FFFFFF" points="667.9,0 631.3,111.1 632.4,111.1 669,0 "/>
<g>
	<path fill="#FFFFFF" d="M543.1,13.4c0-7.4,6-13.4,13.4-13.4c7.4,0,13.4,6,13.4,13.4c0,7.4-6,13.4-13.4,13.4
		C549.1,26.8,543.1,20.8,543.1,13.4z M546.1,13.4c0,5.7,4.7,10.4,10.4,10.4c5.7,0,10.4-4.7,10.4-10.4c0-5.7-4.7-10.4-10.4-10.4
		C550.8,3,546.1,7.7,546.1,13.4L546.1,13.4z"/>
	
		<rect x="541.2" y="20.1" transform="matrix(0.7067 0.7075 -0.7075 0.7067 178.1945 -376.1987)" fill="#FFFFFF" width="3.4" height="13.5"/>
</g>
<path d="M298.9,21.1c-5.8,0-10.5-4.7-10.5-10.5c0-5.8,4.7-10.5,10.5-10.5s10.5,4.7,10.5,10.5C309.5,16.4,304.8,21.1,298.9,21.1
	L298.9,21.1z M298.9,1.9c-4.8,0-8.6,3.9-8.6,8.6s3.9,8.6,8.6,8.6c4.8,0,8.6-3.9,8.6-8.6C307.6,5.8,303.7,1.9,298.9,1.9L298.9,1.9z"
	/>
<rect x="295.1" y="9.6" width="7.7" height="1.9"/>
<rect x="298" y="6.7" width="1.9" height="7.7"/>
<path fill="#FFFFFF" d="M123.5,580.4c-7.8,0-14.1-6.3-14.1-14.1c0-7.8,6.3-14.1,14.1-14.1s14.1,6.3,14.1,14.1
	C137.6,574,131.3,580.4,123.5,580.4L123.5,580.4z M123.5,554.7c-6.4,0-11.6,5.2-11.6,11.6c0,6.4,5.2,11.6,11.6,11.6
	c6.4,0,11.6-5.2,11.6-11.6C135,559.9,129.9,554.7,123.5,554.7L123.5,554.7z"/>
<rect x="118.3" y="564.9" fill="#FFFFFF" width="10.3" height="2.6"/>
<rect x="122.2" y="561.1" fill="#FFFFFF" width="2.6" height="10.3"/>
<path fill="#FFFFFF" d="M298.9,99.8c-5.8,0-10.5-4.7-10.5-10.5c0-5.8,4.7-10.5,10.5-10.5s10.5,4.7,10.5,10.5
	C309.5,95,304.8,99.8,298.9,99.8L298.9,99.8z M298.9,80.6c-4.8,0-8.6,3.9-8.6,8.6s3.9,8.6,8.6,8.6c4.8,0,8.6-3.9,8.6-8.6
	C307.6,84.5,303.7,80.6,298.9,80.6L298.9,80.6z"/>
<rect x="295.1" y="88.3" fill="#FFFFFF" width="7.7" height="1.9"/>
<rect x="298" y="85.4" fill="#FFFFFF" width="1.9" height="7.7"/>
<rect x="410" y="116.8" fill="#FED800" width="3.6" height="16.4"/>
<path fill="#231F20" d="M291.5,43.2c-4.1-4.1-4.1-10.8,0-14.9c4.1-4.1,10.8-4.1,14.9,0c4.1,4.1,4.1,10.8,0,14.9
	C302.3,47.3,295.6,47.3,291.5,43.2L291.5,43.2z M305,29.7c-3.4-3.4-8.8-3.4-12.2,0c-3.4,3.4-3.4,8.8,0,12.2s8.8,3.4,12.2,0
	C308.4,38.5,308.4,33,305,29.7L305,29.7z"/>
<rect x="295.1" y="34.8" fill="#231F20" width="7.7" height="1.9"/>
<path fill="#FED800" d="M291.5,69.4c-4.1-4.1-4.1-10.8,0-14.9c4.1-4.1,10.8-4.1,14.9,0c4.1,4.1,4.1,10.8,0,14.9
	C302.3,73.5,295.6,73.5,291.5,69.4L291.5,69.4z M305,55.8c-3.4-3.4-8.8-3.4-12.2,0c-3.4,3.4-3.4,8.8,0,12.2s8.8,3.4,12.2,0
	C308.4,64.7,308.4,59.2,305,55.8L305,55.8z"/>
<rect x="295.1" y="61" fill="#FED800" width="7.7" height="1.9"/>
<path fill="#4C2F83" d="M325.8,21.1c-5.8,0-10.5-4.7-10.5-10.5c0-5.8,4.7-10.5,10.5-10.5c5.8,0,10.5,4.7,10.5,10.5
	C336.3,16.4,331.6,21.1,325.8,21.1L325.8,21.1z M325.8,1.9c-4.8,0-8.6,3.9-8.6,8.6s3.9,8.6,8.6,8.6c4.8,0,8.6-3.9,8.6-8.6
	C334.4,5.8,330.5,1.9,325.8,1.9L325.8,1.9z"/>
<rect x="321.9" y="9.6" fill="#4C2F83" width="7.7" height="1.9"/>
<rect x="324.8" y="6.7" fill="#4C2F83" width="1.9" height="7.7"/>
<path fill="#4C2F83" d="M318.3,43.2c-4.1-4.1-4.1-10.8,0-14.9c4.1-4.1,10.8-4.1,14.9,0c4.1,4.1,4.1,10.8,0,14.9
	C329.1,47.3,322.4,47.3,318.3,43.2L318.3,43.2z M331.9,29.7c-3.4-3.4-8.8-3.4-12.2,0c-3.4,3.4-3.4,8.8,0,12.2s8.8,3.4,12.2,0
	C335.2,38.5,335.2,33,331.9,29.7L331.9,29.7z"/>
<rect x="321.9" y="34.8" fill="#4C2F83" width="7.7" height="1.9"/>
<g>
	
		<rect x="10.1" y="497.1" transform="matrix(0.7072 0.707 -0.707 0.7072 357.5464 134.4566)" fill="#4C2F83" width="12.6" height="3.6"/>
	
		<rect x="14.7" y="499" transform="matrix(0.7072 0.707 -0.707 0.7072 362.064 136.2902)" fill="#4C2F83" width="3.6" height="12.6"/>
</g>
<path fill="#4C2F83" d="M4.4,576c-5.9-5.9-5.9-15.5,0-21.4c5.9-5.9,15.5-5.9,21.4,0c5.9,5.9,5.9,15.5,0,21.4
	C19.9,581.9,10.3,581.9,4.4,576z M23.9,556.6c-4.8-4.8-12.7-4.8-17.5,0c-4.8,4.8-4.8,12.7,0,17.5c4.8,4.8,12.7,4.8,17.5,0
	C28.7,569.2,28.7,561.4,23.9,556.6z"/>
<path fill="#4C2F83" d="M5.5,643.6c-6.1-6.1-6.1-16,0-22c6.1-6.1,16-6.1,22,0c6.1,6.1,6.1,16,0,22C21.5,649.7,11.6,649.7,5.5,643.6
	L5.5,643.6z M25.5,623.6c-5-5-13.1-5-18,0c-5,5-5,13.1,0,18c5,5,13.1,5,18,0C30.5,636.6,30.5,628.5,25.5,623.6L25.5,623.6z"/>
<g>
	
		<rect x="13" y="628.7" transform="matrix(0.7072 0.707 -0.707 0.7072 450.7393 171.8562)" fill="#4C2F83" width="9.9" height="2.8"/>
	
		<rect x="16.4" y="630.2" transform="matrix(0.7075 0.7067 -0.7067 0.7075 454.094 173.1532)" fill="#4C2F83" width="2.8" height="9.9"/>
</g>
<path fill="#FFFFFF" d="M53.9,643.6c-6.1-6.1-6.1-16,0-22c6.1-6.1,16-6.1,22,0c6.1,6.1,6.1,16,0,22
	C69.8,649.7,59.9,649.7,53.9,643.6L53.9,643.6z M73.9,623.6c-5-5-13.1-5-18,0c-5,5-5,13.1,0,18c5,5,13.1,5,18,0
	C78.9,636.6,78.9,628.5,73.9,623.6L73.9,623.6z"/>
<g>
	
		<rect x="61.2" y="628.7" transform="matrix(0.707 0.7072 -0.7072 0.707 465.0033 137.8219)" fill="#FFFFFF" width="9.9" height="2.8"/>
	
		<rect x="64.8" y="630.1" transform="matrix(0.7074 0.7068 -0.7068 0.7074 468.2148 138.9909)" fill="#FFFFFF" width="2.8" height="9.8"/>
</g>
<g>
	<polygon fill="#5A5B5D" points="263.5,23.3 263.5,19.1 267.6,19.1 267.6,23.3 271.9,23.3 271.9,17.9 265.6,12.2 259.4,17.9 
		259.4,23.3 	"/>
	<polygon fill="#5A5B5D" points="272.7,17.2 265.6,10.8 258.5,17.2 257.1,15.6 265.6,7.9 274.1,15.6 	"/>
</g>
<rect x="138.3" y="236.5" fill="#CD332D" width="25.5" height="25.5"/>
<path fill="#FFFFFF" d="M149.3,239h-1.2l-0.8,3l-0.8-3h-1.2c0.2,0.7,0.5,1.4,0.7,2.1c0.4,1.1,0.6,1.9,0.7,2.4v3.1h1.1v-3.1
	L149.3,239L149.3,239z M152.4,244.8v-2c0-0.6-0.1-1.1-0.3-1.3c-0.3-0.4-0.7-0.6-1.2-0.6c-0.5,0-0.9,0.2-1.2,0.6
	c-0.2,0.3-0.3,0.7-0.3,1.3v2c0,0.6,0.1,1.1,0.3,1.3c0.3,0.4,0.7,0.6,1.2,0.6c0.5,0,0.9-0.2,1.2-0.6
	C152.3,245.9,152.4,245.4,152.4,244.8L152.4,244.8z M151.3,245c0,0.5-0.2,0.8-0.5,0.8c-0.3,0-0.5-0.3-0.5-0.8v-2.4
	c0-0.5,0.2-0.8,0.5-0.8s0.5,0.3,0.5,0.8V245L151.3,245z M156.2,246.7V241h-1v4.4c-0.2,0.3-0.4,0.5-0.7,0.5c-0.1,0-0.2-0.1-0.2-0.2
	c0,0,0-0.2,0-0.4V241h-1v4.5c0,0.4,0,0.7,0.1,0.8c0.1,0.3,0.3,0.4,0.7,0.4c0.4,0,0.8-0.2,1.2-0.7v0.6L156.2,246.7L156.2,246.7z"/>
<path fill="#FFFFFF" d="M159.6,253.6c0,1.3,0,2.7-0.3,4c-0.2,0.9-0.9,1.6-1.8,1.7c-2.1,0.2-4.2,0.2-6.4,0.2c-2.1,0-4.3,0-6.4-0.2
	c-0.9-0.1-1.6-0.8-1.8-1.7c-0.3-1.3-0.3-2.7-0.3-4s0-2.7,0.3-4c0.2-0.9,0.9-1.6,1.8-1.7c2.1-0.2,4.2-0.2,6.4-0.2s4.3,0,6.4,0.2
	c0.9,0.1,1.6,0.8,1.8,1.7C159.6,250.9,159.6,252.3,159.6,253.6L159.6,253.6z"/>
<path fill="#CD332D" d="M147.4,250.8v-1.1h-3.6v1.1h1.2v6.5h1.1v-6.5L147.4,250.8L147.4,250.8z M149.5,257.3v-0.6
	c-0.4,0.5-0.8,0.7-1.2,0.7c-0.3,0-0.6-0.1-0.7-0.4c-0.1-0.2-0.1-0.4-0.1-0.8v-4.5h1v4.2c0,0.2,0,0.4,0,0.4c0,0.2,0.1,0.2,0.2,0.2
	c0.2,0,0.4-0.2,0.6-0.5v-4.3h1v5.7L149.5,257.3L149.5,257.3z M153.4,255.7c0,0.5-0.2,0.8-0.4,0.8c-0.2,0-0.3-0.1-0.5-0.3v-3.4
	c0.2-0.2,0.3-0.2,0.5-0.2c0.3,0,0.4,0.3,0.4,0.8V255.7L153.4,255.7z M154.4,255.6v-2.3c0-0.5,0-0.9-0.1-1.1
	c-0.1-0.4-0.4-0.6-0.8-0.6c-0.4,0-0.7,0.2-1.1,0.6v-2.5h-1v7.6h1v-0.6c0.3,0.4,0.7,0.6,1.1,0.6c0.4,0,0.7-0.2,0.8-0.6
	C154.4,256.5,154.4,256.1,154.4,255.6L154.4,255.6z M157.3,253.8h-1v-0.5c0-0.5,0.2-0.8,0.5-0.8c0.3,0,0.5,0.3,0.5,0.8L157.3,253.8
	L157.3,253.8z M158.3,255.5v-0.1h-1c0,0.4,0,0.6,0,0.7c-0.1,0.3-0.2,0.4-0.5,0.4c-0.4,0-0.5-0.3-0.5-0.8v-1h2.1v-1.2
	c0-0.6-0.1-1-0.3-1.3c-0.3-0.4-0.7-0.6-1.2-0.6c-0.5,0-0.9,0.2-1.2,0.6c-0.2,0.3-0.3,0.7-0.3,1.3v2c0,0.6,0.1,1,0.3,1.3
	c0.3,0.4,0.7,0.6,1.2,0.6s1-0.2,1.2-0.6c0.1-0.2,0.2-0.4,0.2-0.6C158.3,256.1,158.3,255.8,158.3,255.5L158.3,255.5z"/>
<rect x="276.7" y="236.5" fill="#CC3732" width="25.5" height="25.5"/>
<path fill="#FFFFFF" d="M289,240.5c0.2,0.1,0.3,0.2,0.5,0.4c0.2,0.2,0.4,0.4,0.6,0.7c0.2,0.3,0.3,0.6,0.5,1c0.1,0.4,0.2,0.8,0.2,1.3
	c0,0.9-0.2,1.6-0.6,2.2c-0.2,0.3-0.4,0.5-0.6,0.7c-0.2,0.2-0.5,0.5-0.7,0.7c-0.2,0.2-0.3,0.3-0.4,0.5c-0.2,0.2-0.2,0.4-0.2,0.7
	c0,0.3,0.1,0.5,0.2,0.7c0.1,0.2,0.3,0.3,0.4,0.4l0.9,0.7c0.5,0.4,1,0.9,1.4,1.5c0.4,0.5,0.6,1.2,0.6,2.1c0,1.2-0.5,2.3-1.6,3.3
	c-1.1,1-2.8,1.5-4.9,1.5c-1.8,0-3.1-0.4-4-1.1c-0.9-0.7-1.3-1.5-1.3-2.5c0-0.5,0.1-1,0.4-1.6c0.3-0.6,0.8-1.1,1.5-1.5
	c0.8-0.5,1.7-0.8,2.6-0.9c0.9-0.1,1.6-0.2,2.2-0.2c-0.2-0.2-0.3-0.5-0.5-0.8c-0.2-0.3-0.2-0.6-0.2-1c0-0.2,0-0.4,0.1-0.6
	c0.1-0.2,0.1-0.3,0.2-0.4c-0.3,0-0.6,0-0.8,0c-1.4,0-2.4-0.4-3.1-1.3c-0.7-0.8-1.1-1.7-1.1-2.7c0-1.2,0.5-2.4,1.6-3.4
	c0.7-0.6,1.5-1,2.3-1.2c0.8-0.2,1.5-0.2,2.2-0.2h5.1l-1.6,0.9L289,240.5L289,240.5L289,240.5L289,240.5z M290,255.2
	c0-0.6-0.2-1.2-0.6-1.7c-0.4-0.5-1.1-1-2.1-1.7c-0.2,0-0.4,0-0.6,0c-0.1,0-0.5,0-1,0c-0.5,0.1-1.1,0.2-1.6,0.4
	c-0.1,0-0.3,0.1-0.5,0.2c-0.2,0.1-0.5,0.3-0.7,0.5c-0.2,0.2-0.4,0.5-0.6,0.8c-0.2,0.3-0.3,0.7-0.3,1.2c0,0.9,0.4,1.6,1.2,2.2
	c0.8,0.6,1.8,0.9,3.2,0.9c1.2,0,2.1-0.3,2.7-0.8C289.7,256.6,290,255.9,290,255.2L290,255.2z M286.5,247.7c0.7,0,1.2-0.3,1.7-0.7
	c0.2-0.3,0.4-0.7,0.4-1c0-0.3,0.1-0.6,0.1-0.9c0-1-0.3-2-0.8-3c-0.2-0.5-0.6-0.9-1-1.2c-0.4-0.3-0.9-0.4-1.4-0.5
	c-0.7,0-1.3,0.3-1.7,0.8c-0.4,0.6-0.6,1.2-0.6,1.9c0,0.9,0.3,1.9,0.8,2.9c0.3,0.5,0.6,0.9,1,1.2
	C285.5,247.5,285.9,247.7,286.5,247.7L286.5,247.7z"/>
<polygon fill="#FFFFFF" points="299.1,242.4 296.4,242.4 296.4,239.7 295.1,239.7 295.1,242.4 292.4,242.4 292.4,243.7 295.1,243.7 
	295.1,246.3 296.4,246.3 296.4,243.7 299.1,243.7 "/>
<rect x="230.6" y="236.6" fill="#00B386" width="25.4" height="25.4"/>
<path fill="#FFFFFF" d="M246,244.8c0-1.2,2.3-1.8,2.3,0.2c0,1.1-0.2,2.1-0.4,3h2.4c0.2-1.1,0.2-2.2,0.2-3.5c0-3.7-6.8-4.3-6.8,0.4
	c0,3.3,1.5,5,3.1,5.9c-1.3,2.6-3.1,4.1-3.1,4.1c-5.1-4.1-4.6-11.1-4.6-11.1H237c0,9.4,5,12.7,5.6,13.2c0.6,0.5,0.7,0.5,1.5,0.4
	c0.7,0,2.4-1.7,4.4-4.9c0.2-0.3,0.4-0.6,0.5-0.9c0.9,0.2,1.5,0.2,1.5,0.2v-2C246.2,249.4,246,245.7,246,244.8L246,244.8z"/>
<rect x="322.8" y="236.5" fill="#32669A" width="25.5" height="25.5"/>
<polygon fill="#231F20" points="322.8,262 322.8,262.1 348.4,262.1 348.4,236.5 322.8,236.5 322.8,262.1 322.8,262.1 322.8,262 
	322.8,262 322.8,236.6 348.3,236.6 348.3,262 322.8,262 322.8,262 322.8,262 "/>
<path fill="#FFFFFF" d="M329.3,240.9h12.5c1.2,0,2.2,1,2.2,2.2v12.5c0,1.2-1,2.2-2.2,2.2h-12.5c-1.2,0-2.2-1-2.2-2.2V243
	C327.2,241.8,328.2,240.9,329.3,240.9L329.3,240.9z M339.4,242.8c-0.4,0-0.8,0.3-0.8,0.8v1.8c0,0.4,0.3,0.8,0.8,0.8h1.9
	c0.4,0,0.8-0.3,0.8-0.8v-1.8c0-0.4-0.3-0.8-0.8-0.8H339.4z M342.1,248h-1.5c0.1,0.5,0.2,0.9,0.2,1.4c0,2.8-2.3,5.1-5.2,5.1
	c-2.9,0-5.2-2.3-5.2-5.1c0-0.5,0.1-1,0.2-1.4H329v7.1c0,0.4,0.3,0.7,0.7,0.7h11.7c0.4,0,0.7-0.3,0.7-0.7L342.1,248L342.1,248
	L342.1,248z M335.6,246c-1.9,0-3.4,1.5-3.4,3.3c0,1.8,1.5,3.3,3.4,3.3c1.9,0,3.4-1.5,3.4-3.3S337.4,246,335.6,246L335.6,246z"/>
<rect x="92.2" y="236.5" fill="#CA2128" width="25.5" height="25.5"/>
<path fill="#FFFFFF" d="M104.9,240.1c-5.1,0-9.2,4.1-9.2,9.2c0,3.8,2.3,7,5.5,8.5c0-0.6,0-1.4,0.2-2.1c0.2-0.8,1.2-5,1.2-5
	s-0.3-0.6-0.3-1.5c0-1.4,0.8-2.4,1.8-2.4c0.8,0,1.2,0.6,1.2,1.4c0,0.8-0.5,2.1-0.8,3.3c-0.2,1,0.5,1.8,1.5,1.8
	c1.8,0,2.9-2.2,2.9-4.9c0-2-1.4-3.5-3.8-3.5c-2.8,0-4.5,2.1-4.5,4.4c0,0.8,0.2,1.4,0.6,1.8c0.2,0.2,0.2,0.3,0.1,0.5
	c0,0.2-0.1,0.6-0.2,0.7c-0.1,0.2-0.2,0.3-0.5,0.2c-1.3-0.5-1.9-1.9-1.9-3.5c0-2.6,2.2-5.8,6.6-5.8c3.5,0,5.8,2.6,5.8,5.3
	c0,3.6-2,6.3-5,6.3c-1,0-1.9-0.5-2.3-1.1c0,0-0.5,2.1-0.6,2.5c-0.2,0.7-0.6,1.4-0.9,2c0.8,0.2,1.7,0.4,2.6,0.4
	c5.1,0,9.2-4.1,9.2-9.2C114.2,244.2,110,240,104.9,240.1L104.9,240.1z"/>
<rect x="0" y="236.6" fill="#3B5999" width="25.4" height="25.4"/>
<path fill="#FFFFFF" d="M22.2,251.8l0.5-3.9h-3.9v-2.5c0-1.1,0.3-1.9,1.9-1.9l2.1,0V240c-0.4,0-1.6-0.2-3-0.2c-3,0-5,1.8-5,5.1v2.9
	h-3.4v3.9h3.4v10h4v-10L22.2,251.8L22.2,251.8z"/>
<rect x="184.4" y="236.5" fill="#017BB6" width="25.5" height="25.5"/>
<path fill="#FFFFFF" d="M188.8,246.4h3.6V258h-3.6V246.4z M190.6,240.6c1.2,0,2.1,0.9,2.1,2.1c0,1.2-0.9,2.1-2.1,2.1
	c-1.2,0-2.1-0.9-2.1-2.1C188.5,241.6,189.5,240.6,190.6,240.6"/>
<path fill="#FFFFFF" d="M194.7,246.4h3.4v1.6h0c0.5-0.9,1.7-1.9,3.4-1.9c3.6,0,4.3,2.4,4.3,5.5v6.3h-3.6v-5.6c0-1.3,0-3.1-1.9-3.1
	c-1.9,0-2.2,1.5-2.2,3v5.7h-3.6V246.4L194.7,246.4z"/>
<rect x="46.1" y="236.5" fill="#2AA8E0" width="25.5" height="25.5"/>
<path fill="#FFFFFF" d="M67.3,244c-0.6,0.3-1.3,0.5-2,0.5c0.7-0.4,1.3-1.1,1.5-1.9c-0.7,0.4-1.4,0.7-2.2,0.8
	c-0.6-0.7-1.5-1.1-2.5-1.1c-1.9,0-3.5,1.6-3.5,3.5c0,0.3,0,0.5,0.1,0.8c-2.9-0.1-5.5-1.5-7.2-3.6c-0.3,0.5-0.5,1.1-0.5,1.8
	c0,1.2,0.6,2.3,1.6,2.9c-0.6,0-1.1-0.2-1.6-0.4v0c0,1.7,1.2,3.1,2.8,3.4c-0.3,0.1-0.6,0.1-0.9,0.1c-0.2,0-0.4,0-0.7-0.1
	c0.4,1.4,1.7,2.4,3.3,2.4c-1.2,0.9-2.7,1.5-4.3,1.5c-0.3,0-0.6,0-0.8-0.1c1.5,1,3.4,1.6,5.4,1.6c6.4,0,9.9-5.3,9.9-9.9
	c0-0.2,0-0.3,0-0.5C66.3,245.3,66.9,244.7,67.3,244L67.3,244z"/>
<g>
	<path fill="#FFFFFF" d="M151.4,206c0.3,0,0.5-0.3,0.5-0.8v-2.4c0-0.5-0.2-0.8-0.5-0.8c-0.3,0-0.5,0.3-0.5,0.8v2.4
		C150.9,205.7,151.1,206,151.4,206L151.4,206z"/>
	<path fill="#FFFFFF" d="M138.9,222.2h25.5v-25.5h-25.5V222.2L138.9,222.2z M153.8,201.2h1v4.2c0,0.2,0,0.4,0,0.4
		c0,0.2,0.1,0.2,0.2,0.2c0.2,0,0.4-0.2,0.7-0.5v-4.4h1v5.7h-1v-0.6c-0.4,0.5-0.8,0.7-1.2,0.7c-0.3,0-0.6-0.1-0.7-0.4
		c-0.1-0.2-0.1-0.4-0.1-0.9L153.8,201.2L153.8,201.2z M149.8,203c0-0.6,0.1-1.1,0.3-1.3c0.3-0.4,0.7-0.6,1.2-0.6
		c0.5,0,0.9,0.2,1.2,0.6c0.2,0.3,0.3,0.7,0.3,1.3v2c0,0.6-0.1,1.1-0.3,1.3c-0.3,0.4-0.7,0.6-1.2,0.6c-0.5,0-0.9-0.2-1.2-0.6
		c-0.2-0.3-0.3-0.7-0.3-1.3V203L149.8,203z M147.1,199.2l0.8,3l0.8-3h1.2l-1.4,4.6v3.1h-1.1v-3.1c-0.1-0.6-0.3-1.4-0.7-2.4
		c-0.2-0.7-0.5-1.4-0.7-2.1L147.1,199.2L147.1,199.2z M143.4,209.8c0.2-0.9,0.9-1.6,1.8-1.7c2.1-0.2,4.2-0.2,6.4-0.2
		c2.1,0,4.2,0,6.4,0.2c0.9,0.1,1.6,0.8,1.8,1.7c0.3,1.3,0.3,2.7,0.3,4c0,1.3,0,2.7-0.3,4c-0.2,0.9-0.9,1.6-1.8,1.7
		c-2.1,0.2-4.2,0.2-6.4,0.2c-2.1,0-4.3,0-6.4-0.2c-0.9-0.1-1.6-0.8-1.8-1.7c-0.3-1.3-0.3-2.7-0.3-4
		C143.1,212.5,143.1,211.1,143.4,209.8L143.4,209.8z"/>
	<path fill="#FFFFFF" d="M148.9,217.6c0.4,0,0.8-0.2,1.2-0.7v0.6h1v-5.7h-1v4.3c-0.2,0.3-0.4,0.5-0.6,0.5c-0.1,0-0.2-0.1-0.2-0.2
		c0,0,0-0.2,0-0.4v-4.2h-1v4.5c0,0.4,0,0.7,0.1,0.8C148.3,217.4,148.5,217.6,148.9,217.6L148.9,217.6z"/>
	<path fill="#FFFFFF" d="M153,216.9c0.3,0.4,0.7,0.6,1.1,0.6c0.4,0,0.7-0.2,0.8-0.6c0.1-0.2,0.1-0.6,0.1-1.1v-2.3
		c0-0.5,0-0.9-0.1-1.1c-0.1-0.4-0.4-0.6-0.8-0.6c-0.4,0-0.7,0.2-1.1,0.6v-2.5h-1v7.6h1V216.9L153,216.9z M153,212.9
		c0.2-0.2,0.3-0.2,0.5-0.2c0.3,0,0.4,0.3,0.4,0.8v2.4c0,0.5-0.2,0.8-0.4,0.8c-0.2,0-0.3-0.1-0.5-0.3V212.9L153,212.9z"/>
	<polygon fill="#FFFFFF" points="145.6,217.5 146.7,217.5 146.7,211 148,211 148,209.9 144.4,209.9 144.4,211 145.6,211 	"/>
	<path fill="#FFFFFF" d="M157.3,217.6c0.5,0,1-0.2,1.2-0.6c0.1-0.2,0.2-0.4,0.2-0.6c0-0.1,0-0.3,0-0.7v-0.1h-1c0,0.4,0,0.6,0,0.7
		c-0.1,0.3-0.2,0.4-0.5,0.4c-0.4,0-0.5-0.3-0.5-0.8v-1h2.1v-1.2c0-0.6-0.1-1-0.3-1.3c-0.3-0.4-0.7-0.6-1.2-0.6
		c-0.5,0-0.9,0.2-1.2,0.6c-0.2,0.3-0.3,0.7-0.3,1.3v2c0,0.6,0.1,1,0.3,1.3C156.4,217.4,156.8,217.6,157.3,217.6L157.3,217.6z
		 M156.8,213.5c0-0.5,0.2-0.8,0.5-0.8c0.3,0,0.5,0.3,0.5,0.8v0.5h-1L156.8,213.5L156.8,213.5z"/>
</g>
<g>
	<path fill="#FFFFFF" d="M289.1,206.2c0-0.3,0.1-0.6,0.1-0.9c0-1-0.3-2-0.8-3c-0.2-0.5-0.6-0.9-1-1.2c-0.4-0.3-0.9-0.4-1.4-0.5
		c-0.7,0-1.3,0.3-1.7,0.8c-0.4,0.6-0.6,1.2-0.6,1.9c0,0.9,0.3,1.9,0.8,2.9c0.3,0.5,0.6,0.9,1,1.2c0.4,0.3,0.9,0.5,1.4,0.5
		c0.7,0,1.2-0.3,1.7-0.7C288.9,206.8,289,206.5,289.1,206.2L289.1,206.2z"/>
	<path fill="#FFFFFF" d="M283.7,217.2c0.8,0.6,1.8,0.9,3.2,0.9c1.2,0,2.1-0.3,2.7-0.8c0.6-0.5,0.9-1.2,0.9-1.9
		c0-0.6-0.2-1.2-0.6-1.7c-0.4-0.5-1.1-1-2.1-1.7c-0.2,0-0.3,0-0.6,0c-0.1,0-0.5,0-1,0.1c-0.5,0.1-1.1,0.2-1.6,0.4
		c-0.1,0-0.3,0.1-0.5,0.2c-0.2,0.1-0.5,0.3-0.7,0.5c-0.2,0.2-0.4,0.5-0.6,0.8c-0.2,0.3-0.3,0.7-0.3,1.2
		C282.5,215.9,282.9,216.6,283.7,217.2L283.7,217.2z"/>
	<path fill="#FFFFFF" d="M277.2,222.2h25.5v-25.5h-25.5V222.2L277.2,222.2z M293,202.6h2.7v-2.7h1.3v2.7h2.7v1.3h-2.7v2.7h-1.3v-2.7
		H293V202.6L293,202.6z M280.8,214c0.3-0.6,0.8-1.1,1.5-1.5c0.8-0.5,1.7-0.8,2.6-0.9c0.9-0.1,1.6-0.2,2.2-0.2
		c-0.2-0.2-0.3-0.5-0.5-0.8c-0.2-0.3-0.2-0.6-0.2-1c0-0.2,0-0.4,0.1-0.6c0.1-0.2,0.1-0.3,0.2-0.4c-0.3,0-0.6,0-0.8,0
		c-1.4,0-2.4-0.4-3.1-1.3c-0.7-0.8-1.1-1.7-1.1-2.7c0-1.2,0.5-2.4,1.6-3.4c0.7-0.6,1.5-1,2.3-1.2c0.8-0.2,1.5-0.2,2.2-0.2h5.1
		l-1.6,0.9h-1.6c0.2,0.1,0.3,0.2,0.5,0.4c0.2,0.2,0.4,0.4,0.6,0.7c0.2,0.3,0.3,0.6,0.5,1c0.1,0.4,0.2,0.8,0.2,1.3
		c0,0.9-0.2,1.6-0.6,2.2c-0.2,0.3-0.4,0.5-0.6,0.7c-0.2,0.2-0.5,0.5-0.8,0.7c-0.2,0.2-0.3,0.3-0.4,0.5c-0.2,0.2-0.2,0.4-0.2,0.7
		c0,0.3,0.1,0.5,0.2,0.7c0.1,0.2,0.3,0.3,0.4,0.4l0.9,0.7c0.5,0.4,1,0.9,1.4,1.5c0.4,0.5,0.6,1.2,0.6,2.1c0,1.2-0.5,2.3-1.6,3.3
		c-1.1,1-2.8,1.5-4.9,1.5c-1.8,0-3.1-0.4-4-1.1c-0.9-0.7-1.3-1.5-1.3-2.5C280.4,215.1,280.5,214.6,280.8,214L280.8,214z"/>
</g>
<path fill="#FFFFFF" d="M231.2,222.1h25.4v-25.4h-25.4L231.2,222.1L231.2,222.1z M239.7,203.8c0,0-0.5,7,4.6,11.1
	c0,0,1.8-1.4,3.1-4.1c-1.6-0.9-3.1-2.6-3.1-5.9c0-4.6,6.8-4,6.8-0.4c0,1.3,0,2.4-0.2,3.5h-2.4c0.2-0.9,0.4-1.9,0.4-3
	c0-2-2.3-1.4-2.3-0.2c0,0.9,0.2,4.6,4.5,5v2c0,0-0.6,0-1.5-0.2c-0.2,0.3-0.3,0.6-0.5,0.9c-2,3.2-3.7,4.8-4.4,4.9
	c-0.7,0-0.9,0.1-1.5-0.4c-0.6-0.5-5.6-3.8-5.6-13.2L239.7,203.8L239.7,203.8z"/>
<g>
	<path fill="#FFFFFF" d="M348.9,196.7h-25.5v25.5h25.5V196.7L348.9,196.7z M344.5,215.7c0,1.2-1,2.2-2.2,2.2h-12.5
		c-1.2,0-2.2-1-2.2-2.2v-12.5c0-1.2,1-2.2,2.2-2.2h12.5c1.2,0,2.2,1,2.2,2.2V215.7L344.5,215.7z"/>
	<path fill="#FFFFFF" d="M340,206.2h1.9c0.4,0,0.8-0.3,0.8-0.8v-1.8c0-0.4-0.3-0.8-0.8-0.8H340c-0.4,0-0.8,0.3-0.8,0.8v1.8
		C339.2,205.9,339.5,206.2,340,206.2L340,206.2z"/>
	<path fill="#FFFFFF" d="M341.4,209.6c0,2.8-2.3,5.1-5.2,5.1c-2.9,0-5.2-2.3-5.2-5.1c0-0.5,0.1-1,0.2-1.4h-1.5v7.1
		c0,0.4,0.3,0.7,0.7,0.7H342c0.4,0,0.7-0.3,0.7-0.7v-7.1h-1.5C341.3,208.6,341.3,209.1,341.4,209.6L341.4,209.6z"/>
	<ellipse fill="#FFFFFF" cx="336.1" cy="209.4" rx="3.4" ry="3.3"/>
</g>
<rect x="367.1" y="236.5" fill="#32506D" width="25.5" height="25.5"/>
<path fill="#FFFFFF" d="M92.7,222.2h25.5v-25.5H92.7L92.7,222.2L92.7,222.2z M105.5,200.2c5.1,0,9.2,4.1,9.2,9.2s-4.1,9.2-9.2,9.2
	c-0.9,0-1.8-0.1-2.6-0.4c0.3-0.6,0.7-1.3,0.9-2c0.1-0.4,0.6-2.5,0.6-2.5c0.3,0.6,1.3,1.1,2.3,1.1c3,0,5-2.7,5-6.3
	c0-2.7-2.3-5.3-5.8-5.3c-4.4,0-6.6,3.1-6.6,5.8c0,1.6,0.6,3,1.9,3.5c0.2,0.1,0.4,0,0.5-0.2c0-0.2,0.1-0.6,0.2-0.7
	c0.1-0.2,0-0.3-0.1-0.5c-0.4-0.4-0.6-1-0.6-1.8c0-2.3,1.7-4.4,4.5-4.4c2.5,0,3.8,1.5,3.8,3.5c0,2.7-1.2,4.9-2.9,4.9
	c-1,0-1.7-0.8-1.5-1.8c0.3-1.2,0.8-2.4,0.8-3.3c0-0.8-0.4-1.4-1.2-1.4c-1,0-1.8,1-1.8,2.4c0,0.9,0.3,1.5,0.3,1.5s-1,4.3-1.2,5
	c-0.2,0.7-0.2,1.5-0.2,2.1c-3.3-1.4-5.5-4.7-5.5-8.5C96.3,204.4,100.4,200.2,105.5,200.2L105.5,200.2z"/>
<path fill="#FFFFFF" d="M0.5,222.1h25.4v-25.4H0.5C0.5,196.7,0.5,222.1,0.5,222.1z M12,208h3.4v-2.9c0-3.3,2-5.1,5-5.1
	c1.4,0,2.6,0.1,3,0.2v3.5h-2.1c-1.6,0-1.9,0.8-1.9,1.9v2.5h3.9l-0.5,3.9h-3.3v10h-4v-10H12L12,208L12,208z"/>
<path fill="#FFFFFF" d="M185,222.2h25.5v-25.5H185V222.2L185,222.2z M192.9,218.1h-3.6v-11.6h3.6V218.1L192.9,218.1z M195.2,206.6
	h3.4v1.6h0c0.5-0.9,1.7-1.9,3.4-1.9c3.6,0,4.3,2.4,4.3,5.5v6.3h-3.6v-5.6c0-1.3,0-3.1-1.9-3.1c-1.9,0-2.2,1.5-2.2,3v5.7h-3.6
	L195.2,206.6L195.2,206.6z M191.1,200.8c1.2,0,2.1,0.9,2.1,2.1c0,1.2-0.9,2.1-2.1,2.1c-1.2,0-2.1-0.9-2.1-2.1
	C189.1,201.7,190,200.8,191.1,200.8L191.1,200.8z"/>
<path fill="#FFFFFF" d="M46.6,222.2h25.5v-25.5H46.6L46.6,222.2L46.6,222.2z M52.8,210.9c0.2,0,0.4,0.1,0.7,0.1c0.3,0,0.6,0,0.9-0.1
	c-1.6-0.3-2.8-1.7-2.8-3.4v0c0.5,0.3,1,0.4,1.6,0.4c-0.9-0.6-1.6-1.7-1.6-2.9c0-0.6,0.2-1.2,0.5-1.8c1.7,2.1,4.3,3.5,7.2,3.6
	c-0.1-0.3-0.1-0.5-0.1-0.8c0-1.9,1.6-3.5,3.5-3.5c1,0,1.9,0.4,2.5,1.1c0.8-0.2,1.5-0.4,2.2-0.8c-0.3,0.8-0.8,1.5-1.5,1.9
	c0.7-0.1,1.4-0.3,2-0.6c-0.5,0.7-1.1,1.3-1.7,1.8c0,0.2,0,0.3,0,0.5c0,4.6-3.5,9.9-9.9,9.9c-2,0-3.8-0.6-5.4-1.6
	c0.3,0,0.5,0.1,0.8,0.1c1.6,0,3.1-0.6,4.3-1.5C54.5,213.3,53.2,212.3,52.8,210.9L52.8,210.9z"/>
<path fill="#FFFFFF" d="M500.9,37.8l8-8l2.3,2.4l-5.7,5.7l5.7,5.7l-2.3,2.3L500.9,37.8L500.9,37.8z"/>
<path fill="#FFFFFF" d="M478.1,45.8l-2.3-2.3l5.7-5.7l-5.7-5.7l2.3-2.4l8,8L478.1,45.8L478.1,45.8z"/>
<path fill="#FED800" d="M401.2,35.1c0,2.5-0.9,4.7-2.7,6.4c-1.8,1.8-3.9,2.7-6.4,2.7c-2.5,0-4.7-0.9-6.4-2.7
	c-1.8-1.8-2.7-3.9-2.7-6.4s0.9-4.7,2.7-6.4c1.8-1.8,3.9-2.7,6.4-2.7c2.5,0,4.7,0.9,6.4,2.7C400.4,30.5,401.2,32.6,401.2,35.1
	L401.2,35.1z M397.6,35.1c0-1.5-0.5-2.8-1.6-3.9c-1.1-1.1-2.4-1.6-3.9-1.6c-1.5,0-2.8,0.5-3.9,1.6c-1.1,1.1-1.6,2.4-1.6,3.9
	s0.5,2.8,1.6,3.9c1.1,1.1,2.4,1.6,3.9,1.6s2.8-0.5,3.9-1.6S397.6,36.7,397.6,35.1L397.6,35.1z M394.9,35.1c0,0.8-0.3,1.4-0.8,1.9
	c-0.5,0.5-1.2,0.8-1.9,0.8s-1.4-0.3-1.9-0.8c-0.5-0.5-0.8-1.2-0.8-1.9c0-0.8,0.3-1.4,0.8-1.9c0.5-0.5,1.2-0.8,1.9-0.8
	s1.4,0.3,1.9,0.8C394.6,33.7,394.9,34.4,394.9,35.1L394.9,35.1z"/>
<path fill="#FFFFFF" d="M401.2,9.1c0,2.5-0.9,4.7-2.7,6.4s-3.9,2.7-6.4,2.7c-2.5,0-4.7-0.9-6.4-2.7c-1.8-1.8-2.7-3.9-2.7-6.4
	s0.9-4.7,2.7-6.4c1.8-1.8,3.9-2.7,6.5-2.7c2.5,0,4.7,0.9,6.4,2.7C400.4,4.5,401.3,6.6,401.2,9.1L401.2,9.1z M397.6,9.1
	c0-1.5-0.5-2.8-1.6-3.9c-1.1-1.1-2.4-1.6-3.9-1.6c-1.5,0-2.8,0.5-3.9,1.6c-1.1,1.1-1.6,2.4-1.6,3.9s0.5,2.8,1.6,3.9s2.4,1.6,3.9,1.6
	s2.8-0.5,3.9-1.6S397.6,10.6,397.6,9.1L397.6,9.1z"/>
<path fill="#4C2F83" d="M426.1,35.1c0,2.5-0.9,4.7-2.7,6.4c-1.8,1.8-3.9,2.7-6.4,2.7c-2.5,0-4.7-0.9-6.4-2.7
	c-1.8-1.8-2.7-3.9-2.7-6.4s0.9-4.7,2.7-6.4c1.8-1.8,3.9-2.7,6.4-2.7c2.5,0,4.7,0.9,6.4,2.7C425.2,30.5,426.1,32.6,426.1,35.1
	L426.1,35.1z M422.5,35.1c0-1.5-0.5-2.8-1.6-3.9c-1.1-1.1-2.4-1.6-3.9-1.6c-1.5,0-2.8,0.5-3.9,1.6c-1.1,1.1-1.6,2.4-1.6,3.9
	s0.5,2.8,1.6,3.9c1.1,1.1,2.4,1.6,3.9,1.6s2.8-0.5,3.9-1.6S422.5,36.7,422.5,35.1L422.5,35.1z M419.8,35.1c0,0.8-0.3,1.4-0.8,1.9
	s-1.2,0.8-1.9,0.8s-1.4-0.3-1.9-0.8c-0.5-0.5-0.8-1.2-0.8-1.9c0-0.8,0.3-1.4,0.8-1.9c0.5-0.5,1.2-0.8,1.9-0.8s1.4,0.3,1.9,0.8
	C419.5,33.7,419.7,34.4,419.8,35.1L419.8,35.1z"/>
<path fill="#FFFFFF" d="M426.1,9.1c0,2.5-0.9,4.7-2.7,6.4s-3.9,2.7-6.4,2.7c-2.5,0-4.7-0.9-6.4-2.7c-1.8-1.8-2.7-3.9-2.7-6.4
	s0.9-4.7,2.7-6.4c1.8-1.8,3.9-2.7,6.5-2.7c2.5,0,4.7,0.9,6.4,2.7C425.2,4.5,426.1,6.6,426.1,9.1L426.1,9.1z M422.5,9.1
	c0-1.5-0.5-2.8-1.6-3.9c-1.1-1.1-2.4-1.6-3.9-1.6c-1.5,0-2.8,0.5-3.9,1.6c-1.1,1.1-1.6,2.4-1.6,3.9s0.5,2.8,1.6,3.9s2.4,1.6,3.9,1.6
	s2.8-0.5,3.9-1.6S422.5,10.6,422.5,9.1L422.5,9.1z"/>
<path fill="#4C2F83" d="M456.8,1.3c0.9,0.9,1.3,2,1.3,3.2v9.1c0,1.3-0.4,2.3-1.3,3.2c-0.9,0.9-2,1.3-3.2,1.3h-9.1
	c-1.3,0-2.3-0.4-3.2-1.3c-0.9-0.9-1.3-2-1.3-3.2V4.6c0-1.3,0.4-2.3,1.3-3.2c0.9-0.9,2-1.3,3.2-1.3h9.1C454.8,0,455.9,0.4,456.8,1.3
	L456.8,1.3z M454.9,6.8l-1-1c-0.1-0.2-0.3-0.2-0.5,0l-5.1,5.1c-0.2,0.2-0.3,0.2-0.5,0l-2.2-2.3c-0.1,0-0.2-0.1-0.2-0.1
	s-0.2,0-0.2,0.1l-1,0.9c-0.1,0.1-0.1,0.2-0.1,0.2c0,0.1,0,0.2,0.1,0.2l2.2,2.4c0,0,0.1,0.1,0.2,0.1c0.1,0.1,0.1,0.1,0.2,0.2
	c0.1,0.1,0.1,0.1,0.1,0.1l1,1c0.2,0.1,0.3,0.1,0.5,0l6.5-6.6C455,7.1,455,6.9,454.9,6.8L454.9,6.8z"/>
<path fill="#BCBEC0" d="M444.2,26.2h9.1c1.3,0,2.3,0.4,3.2,1.3s1.3,2,1.3,3.2v9.1c0,1.3-0.4,2.3-1.3,3.2s-2,1.3-3.2,1.3h-9.1
	c-1.3,0-2.3-0.4-3.2-1.3c-0.9-0.9-1.3-2-1.3-3.2v-9.1c0-1.3,0.4-2.3,1.3-3.2C441.8,26.7,442.9,26.2,444.2,26.2L444.2,26.2z"/>
<path fill="#FFFFFF" d="M517.4,4.4c0.1,0.1,0.1,0.3,0.1,0.4s0,0.3-0.1,0.4l-10.9,10.9c-0.3,0.3-0.5,0.3-0.8,0l-1.6-1.6
	c-0.2-0.2-0.4-0.4-0.8-0.8l-3.7-3.9c-0.1-0.1-0.1-0.3-0.1-0.4c0-0.1,0-0.3,0.1-0.4l1.6-1.5c0.1-0.1,0.3-0.2,0.4-0.2
	c0.1,0,0.3,0.1,0.4,0.2l3.7,3.8c0.3,0.3,0.6,0.3,0.8,0l8.5-8.4c0.1-0.1,0.3-0.2,0.4-0.2c0.2,0,0.3,0.1,0.4,0.2L517.4,4.4L517.4,4.4z
	"/>
<polygon fill="#FFFFFF" points="489.9,70.3 489.9,70.3 477,56.7 474.1,59.5 484.4,70.3 474.1,81.2 477,83.9 489.9,70.3 "/>
<polygon fill="#FFFFFF" points="498.9,70.3 498.9,70.3 511.8,56.7 514.7,59.5 504.4,70.3 514.7,81.2 511.8,83.9 498.9,70.3 "/>
<g>
	<path fill="#FFFFFF" d="M99.2,321.8c3.2,0,5.8-3.3,5.8-7.3s-2.6-7.3-5.8-7.3c-3.2,0-5.8,3.3-5.8,7.3S96,321.8,99.2,321.8
		L99.2,321.8z M99.2,308.7c2.3,0,4.2,2.7,4.2,5.8s-1.9,5.8-4.2,5.8c-2.3,0-4.2-2.7-4.2-5.8S96.9,308.7,99.2,308.7L99.2,308.7z"/>
	<path fill="#FFFFFF" d="M88.4,323.1l-1.5,4.6c-0.1,0.2,0,0.5,0.1,0.7c0.1,0.2,0.4,0.3,0.6,0.3h23.2c0.2,0,0.5-0.1,0.6-0.3
		c0.1-0.2,0.2-0.5,0.1-0.7l-1.5-4.6c-0.1-0.2-0.3-0.4-0.5-0.5l-5.4-1.5c-0.2-0.1-0.4,0-0.6,0.1l-4.3,2.1l-4.3-2.1
		c-0.2-0.1-0.4-0.1-0.6-0.1l-5.4,1.5C88.7,322.7,88.5,322.9,88.4,323.1L88.4,323.1z M94.5,322.7l4.4,2.2c0.2,0.1,0.5,0.1,0.7,0
		l4.4-2.2l4.7,1.4l1.1,3.2h-21l1.1-3.2L94.5,322.7L94.5,322.7z"/>
</g>
<g>
	<path fill="#231F20" d="M378.2,165.9c2.6,0,4.8-2.7,4.8-6.1s-2.1-6.1-4.8-6.1c-2.6,0-4.8,2.7-4.8,6.1
		C373.4,163.2,375.6,165.9,378.2,165.9L378.2,165.9z"/>
	<path fill="#231F20" d="M369.3,167.7l-1.3,3.8c-0.1,0.2,0,0.4,0.1,0.6c0.1,0.2,0.3,0.3,0.5,0.3h19.2c0.2,0,0.4-0.1,0.5-0.3
		c0.1-0.2,0.2-0.4,0.1-0.6l-1.3-3.8c-0.1-0.2-0.2-0.4-0.4-0.4l-4.5-1.3c-0.2,0-0.3,0-0.5,0l-3.5,1.8l-3.5-1.8
		c-0.1-0.1-0.3-0.1-0.5,0l-4.5,1.3C369.5,167.4,369.4,167.5,369.3,167.7L369.3,167.7z"/>
</g>
<g>
	<path fill="#FFFFFF" d="M65.9,308.7h-3.1v-0.8c0-0.4-0.3-0.8-0.8-0.8h-2.3c-0.4,0-0.8,0.3-0.8,0.8v0.8h-9.3v-0.8
		c0-0.4-0.3-0.8-0.8-0.8h-2.3c-0.4,0-0.8,0.3-0.8,0.8v0.8h-3.1c-0.4,0-0.8,0.3-0.8,0.8V328c0,0.4,0.3,0.8,0.8,0.8h23.2
		c0.4,0,0.8-0.4,0.8-0.8v-18.5C66.7,309.1,66.3,308.7,65.9,308.7L65.9,308.7z M60.5,308.7h0.8v1.5h-0.8V308.7L60.5,308.7z
		 M47.4,308.7h0.8v1.5h-0.8V308.7L47.4,308.7z M65.1,327.3H43.5v-17h2.3v0.8c0,0.4,0.3,0.8,0.8,0.8h2.3c0.4,0,0.8-0.3,0.8-0.8v-0.8
		H59v0.8c0,0.4,0.3,0.8,0.8,0.8h2.3c0.4,0,0.8-0.3,0.8-0.8v-0.8h2.3L65.1,327.3z"/>
	<path fill="#FFFFFF" d="M49.7,314.9h-3.1c-0.4,0-0.8,0.4-0.8,0.8v3.1c0,0.4,0.3,0.8,0.8,0.8h3.1c0.4,0,0.8-0.4,0.8-0.8v-3.1
		C50.5,315.2,50.1,314.9,49.7,314.9L49.7,314.9z M48.9,318h-1.5v-1.5h1.5V318L48.9,318z"/>
	<path fill="#FFFFFF" d="M55.9,314.9h-3.1c-0.4,0-0.8,0.4-0.8,0.8v3.1c0,0.4,0.3,0.8,0.8,0.8h3.1c0.4,0,0.8-0.4,0.8-0.8v-3.1
		C56.7,315.2,56.3,314.9,55.9,314.9L55.9,314.9z M55.1,318h-1.5v-1.5h1.5V318L55.1,318z"/>
	<path fill="#FFFFFF" d="M62.1,314.9H59c-0.4,0-0.8,0.4-0.8,0.8v3.1c0,0.4,0.3,0.8,0.8,0.8h3.1c0.4,0,0.8-0.4,0.8-0.8v-3.1
		C62.8,315.2,62.5,314.9,62.1,314.9L62.1,314.9z M61.3,318h-1.5v-1.5h1.5V318L61.3,318z"/>
	<path fill="#FFFFFF" d="M49.7,321.1h-3.1c-0.4,0-0.8,0.3-0.8,0.8v3.1c0,0.4,0.3,0.8,0.8,0.8h3.1c0.4,0,0.8-0.4,0.8-0.8v-3.1
		C50.5,321.4,50.1,321.1,49.7,321.1L49.7,321.1z M48.9,324.2h-1.5v-1.5h1.5V324.2L48.9,324.2z"/>
	<path fill="#FFFFFF" d="M55.9,321.1h-3.1c-0.4,0-0.8,0.3-0.8,0.8v3.1c0,0.4,0.3,0.8,0.8,0.8h3.1c0.4,0,0.8-0.4,0.8-0.8v-3.1
		C56.7,321.4,56.3,321.1,55.9,321.1L55.9,321.1z M55.1,324.2h-1.5v-1.5h1.5V324.2L55.1,324.2z"/>
	<path fill="#FFFFFF" d="M62.1,321.1H59c-0.4,0-0.8,0.3-0.8,0.8v3.1c0,0.4,0.3,0.8,0.8,0.8h3.1c0.4,0,0.8-0.4,0.8-0.8v-3.1
		C62.8,321.4,62.5,321.1,62.1,321.1L62.1,321.1z M61.3,324.2h-1.5v-1.5h1.5V324.2L61.3,324.2z"/>
</g>
<path fill="#FFFFFF" d="M227.1,330.3h14.7c0.9,0,1.5-0.7,1.5-1.5v-21.6c0-0.9-0.7-1.5-1.5-1.5h-14.7c-0.9,0-1.5,0.7-1.5,1.5v2.3
	h-0.8c-0.4,0-0.8,0.3-0.8,0.8c0,0.4,0.3,0.8,0.8,0.8h0.8v1.5h-0.8c-0.4,0-0.8,0.3-0.8,0.8s0.3,0.8,0.8,0.8h0.8v1.5h-0.8
	c-0.4,0-0.8,0.3-0.8,0.8c0,0.4,0.3,0.8,0.8,0.8h0.8v1.5h-0.8c-0.4,0-0.8,0.3-0.8,0.8c0,0.4,0.3,0.8,0.8,0.8h0.8v1.5h-0.8
	c-0.4,0-0.8,0.3-0.8,0.8c0,0.4,0.3,0.8,0.8,0.8h0.8v1.5h-0.8c-0.4,0-0.8,0.3-0.8,0.8c0,0.4,0.3,0.8,0.8,0.8h0.8v2.3
	C225.5,329.7,226.2,330.4,227.1,330.3L227.1,330.3z M241.8,328.8h-3.1v-21.6h3.1V328.8L241.8,328.8z M227.1,323.4h0.8
	c0.4,0,0.8-0.3,0.8-0.8s-0.3-0.8-0.8-0.8h-0.8v-1.5h0.8c0.4,0,0.8-0.3,0.8-0.8c0-0.4-0.3-0.8-0.8-0.8h-0.8v-1.5h0.8
	c0.4,0,0.8-0.3,0.8-0.8c0-0.4-0.3-0.8-0.8-0.8h-0.8v-1.5h0.8c0.4,0,0.8-0.3,0.8-0.8c0-0.4-0.3-0.8-0.8-0.8h-0.8V311h0.8
	c0.4,0,0.8-0.3,0.8-0.8s-0.3-0.8-0.8-0.8h-0.8v-2.3h10v21.6h-10v-2.3h0.8c0.4,0,0.8-0.4,0.8-0.8s-0.3-0.8-0.8-0.8h-0.8V323.4
	L227.1,323.4z"/>
<g>
	<path fill="#FFFFFF" d="M155.5,307.2l-11.5,1.5l-11.5-1.5c-0.2,0-0.4,0-0.6,0.2c-0.2,0.1-0.3,0.4-0.3,0.6v18.5
		c0,0.4,0.3,0.7,0.7,0.8l11.6,1.5c0,0,0.1,0,0.1,0c0,0,0.1,0,0.1,0l11.6-1.5c0.4-0.1,0.7-0.4,0.7-0.8v-18.5c0-0.2-0.1-0.4-0.3-0.6
		C155.9,307.2,155.7,307.1,155.5,307.2L155.5,307.2z M133.2,308.8l10,1.3v17l-10-1.3V308.8L133.2,308.8z M154.8,325.8l-10,1.3v-17
		l10-1.3V325.8L154.8,325.8z"/>
	<path fill="#FFFFFF" d="M135.4,312.6l6.2,0.8c0,0,0.1,0,0.1,0c0.4,0,0.7-0.3,0.8-0.7c0.1-0.4-0.2-0.8-0.7-0.9l-6.2-0.8
		c-0.4-0.1-0.8,0.2-0.9,0.7C134.7,312.1,135,312.5,135.4,312.6L135.4,312.6z"/>
	<path fill="#FFFFFF" d="M141.8,315.7l-6.2-0.8c-0.4-0.1-0.8,0.2-0.9,0.7c-0.1,0.4,0.2,0.8,0.7,0.9l6.2,0.8c0,0,0.1,0,0.1,0
		c0.4,0,0.7-0.3,0.8-0.7C142.5,316.1,142.2,315.7,141.8,315.7L141.8,315.7z"/>
	<path fill="#FFFFFF" d="M141.8,319.5l-6.2-0.8c-0.4-0.1-0.8,0.2-0.9,0.7c-0.1,0.4,0.2,0.8,0.7,0.9l6.2,0.8c0,0,0.1,0,0.1,0
		c0.4,0,0.7-0.3,0.8-0.7C142.5,320,142.2,319.6,141.8,319.5L141.8,319.5z"/>
	<path fill="#FFFFFF" d="M141.8,323.4l-6.2-0.8c-0.4-0.1-0.8,0.2-0.9,0.7s0.2,0.8,0.7,0.9l6.2,0.8c0,0,0.1,0,0.1,0
		c0.4,0,0.7-0.3,0.8-0.7C142.5,323.8,142.2,323.4,141.8,323.4L141.8,323.4z"/>
	<path fill="#FFFFFF" d="M146.3,313.4C146.3,313.4,146.4,313.3,146.3,313.4l6.3-0.8c0.4-0.1,0.7-0.4,0.7-0.9
		c-0.1-0.4-0.4-0.7-0.9-0.7l-6.2,0.8c-0.4,0.1-0.7,0.4-0.7,0.9C145.6,313.1,145.9,313.4,146.3,313.4L146.3,313.4z"/>
	<path fill="#FFFFFF" d="M146.3,317.2C146.3,317.2,146.4,317.2,146.3,317.2l6.3-0.8c0.4-0.1,0.7-0.4,0.7-0.9
		c-0.1-0.4-0.4-0.7-0.9-0.7l-6.2,0.8c-0.4,0.1-0.7,0.4-0.7,0.9C145.6,316.9,145.9,317.2,146.3,317.2L146.3,317.2z"/>
	<path fill="#FFFFFF" d="M146.3,321.1C146.3,321.1,146.4,321.1,146.3,321.1l6.3-0.8c0.4-0.1,0.7-0.4,0.7-0.9
		c-0.1-0.4-0.4-0.7-0.9-0.7l-6.2,0.8c-0.4,0.1-0.7,0.4-0.7,0.9C145.6,320.8,145.9,321.1,146.3,321.1L146.3,321.1z"/>
	<path fill="#FFFFFF" d="M152.4,322.6l-6.2,0.8c-0.4,0.1-0.7,0.4-0.7,0.9c0,0.4,0.4,0.7,0.8,0.7c0,0,0.1,0,0.1,0l6.2-0.8
		c0.4-0.1,0.7-0.4,0.7-0.9C153.2,322.9,152.8,322.6,152.4,322.6L152.4,322.6z"/>
</g>
<g>
	<path fill="#FFFFFF" d="M177.2,321.1h2.5l0.4,1.3l-2,2c-0.3,0.3-0.3,0.8,0,1.1l3.1,3.1c0.3,0.3,0.8,0.3,1.1,0l2-2l1.3,0.4v2.5
		c0,0.4,0.3,0.8,0.8,0.8h4.6c0.4,0,0.8-0.3,0.8-0.8V327l1.3-0.4l2,2c0.3,0.3,0.8,0.3,1.1,0l3.1-3.1c0.3-0.3,0.3-0.8,0-1.1l-2-2
		l0.4-1.3h2.5c0.4,0,0.8-0.4,0.8-0.8v-4.6c0-0.4-0.3-0.8-0.8-0.8h-2.5l-0.4-1.3l2-2c0.3-0.3,0.3-0.8,0-1.1l-3.1-3.1
		c-0.3-0.3-0.8-0.3-1.1,0l-2,2l-1.3-0.4v-2.5c0-0.4-0.3-0.8-0.8-0.8h-4.6c-0.4,0-0.8,0.3-0.8,0.8v2.5l-1.3,0.4l-2-2
		c-0.3-0.3-0.8-0.3-1.1,0l-3.1,3.1c-0.3,0.3-0.3,0.8,0,1.1l2,2l-0.4,1.3h-2.5c-0.4,0-0.8,0.4-0.8,0.8v4.6
		C176.5,320.7,176.8,321.1,177.2,321.1L177.2,321.1z M178,316.4h2.3c0.3,0,0.6-0.2,0.7-0.5l0.8-2.3c0.1-0.3,0-0.6-0.2-0.8l-1.8-1.8
		l2-2l1.8,1.8c0.2,0.2,0.5,0.3,0.8,0.2l2.3-0.8c0.3-0.1,0.5-0.4,0.5-0.7v-2.3h3.1v2.3c0,0.3,0.2,0.6,0.5,0.7l2.3,0.8
		c0.3,0.1,0.6,0,0.8-0.2l1.8-1.8l2,2l-1.8,1.8c-0.2,0.2-0.3,0.5-0.2,0.8l0.8,2.3c0.1,0.3,0.4,0.5,0.7,0.5h2.3v3.1h-2.3
		c-0.3,0-0.6,0.2-0.7,0.5l-0.8,2.3c-0.1,0.3,0,0.6,0.2,0.8l1.8,1.8l-2,2l-1.8-1.8c-0.2-0.2-0.5-0.3-0.8-0.2l-2.3,0.8
		c-0.3,0.1-0.5,0.4-0.5,0.7v2.3h-3.1v-2.3c0-0.3-0.2-0.6-0.5-0.7l-2.3-0.8c-0.3-0.1-0.6,0-0.8,0.2l-1.8,1.8l-2-2l1.8-1.8
		c0.2-0.2,0.3-0.5,0.2-0.8l-0.8-2.3c-0.1-0.3-0.4-0.5-0.7-0.5H178V316.4L178,316.4z"/>
	<path fill="#FFFFFF" d="M188.8,321.1c1.7,0,3.1-1.4,3.1-3.1c0-1.7-1.4-3.1-3.1-3.1s-3.1,1.4-3.1,3.1
		C185.7,319.7,187.1,321.1,188.8,321.1L188.8,321.1z M188.8,316.4c0.9,0,1.5,0.7,1.5,1.6c0,0.9-0.7,1.5-1.5,1.5
		c-0.9,0-1.5-0.7-1.5-1.5C187.3,317.1,188,316.4,188.8,316.4L188.8,316.4z"/>
</g>
<g>
	<path fill="#FFFFFF" d="M12.6,314.5c0-1.7-1.4-3.1-3.1-3.1c-1.7,0-3.1,1.4-3.1,3.1s1.4,3.1,3.1,3.1
		C11.2,317.6,12.6,316.2,12.6,314.5L12.6,314.5z M8,314.5c0-0.9,0.7-1.5,1.5-1.5c0.9,0,1.5,0.7,1.5,1.5c0,0.9-0.7,1.5-1.5,1.5
		C8.7,316.1,8,315.4,8,314.5L8,314.5z"/>
	<path fill="#FFFFFF" d="M9.5,330.3c0.2,0,0.4-0.1,0.6-0.3c0.3-0.4,8.3-9.5,8.3-15.6c0-4.9-4-8.9-8.9-8.9c-4.9,0-8.9,4-8.9,8.9
		c0,6,7.9,15.2,8.3,15.6C9.1,330.2,9.3,330.3,9.5,330.3L9.5,330.3z M9.5,307.2c4,0,7.3,3.3,7.3,7.4c0,4.6-5.5,11.6-7.3,13.8
		c-1.8-2.2-7.3-9.3-7.3-13.9C2.2,310.5,5.5,307.2,9.5,307.2L9.5,307.2z"/>
</g>
<path fill="#FFFFFF" d="M110.9,360.6H86c-0.5,0-0.8,0.4-0.8,0.8v15c0,0.5,0.4,0.8,0.8,0.8h25c0.5,0,0.8-0.4,0.8-0.8v-15
	C111.8,360.9,111.4,360.6,110.9,360.6L110.9,360.6z M108.3,362.2l-9.8,6.1l-9.8-6.1C88.6,362.2,108.3,362.2,108.3,362.2z
	 M86.8,375.5V363l11.6,7.2l11.6-7.2v12.5H86.8L86.8,375.5z"/>
<g>
	<path fill="#FFFFFF" d="M143.8,365.5c-0.5,0-0.8,0.4-0.8,0.8v11.3l-1.9-1.9c-0.3-0.3-0.9-0.3-1.2,0c-0.3,0.3-0.3,0.9,0,1.2l3.3,3.3
		c0.2,0.2,0.4,0.2,0.6,0.2s0.4-0.1,0.6-0.2l3.3-3.3c0.3-0.3,0.3-0.9,0-1.2c-0.3-0.3-0.9-0.3-1.2,0l-1.9,1.9v-11.3
		C144.6,366,144.3,365.6,143.8,365.5L143.8,365.5z"/>
	<path fill="#FFFFFF" d="M156.3,357.2h-25c-0.5,0-0.8,0.4-0.8,0.8v15c0,0.5,0.4,0.8,0.8,0.8h9.2c0.5,0,0.8-0.4,0.8-0.8
		c0-0.5-0.4-0.8-0.8-0.8h-8.3v-13.3h23.3v13.3h-8.3c-0.5,0-0.8,0.4-0.8,0.8c0,0.5,0.4,0.8,0.8,0.8h9.1c0.5,0,0.8-0.4,0.8-0.8v-15
		C157.1,357.6,156.7,357.2,156.3,357.2L156.3,357.2z"/>
</g>
<g>
	<path fill="#FFFFFF" d="M13.3,355.6c-3.6,0-6.9,1.4-9.4,3.9C1.4,362,0,365.3,0,368.9c0,3.6,1.4,6.9,3.9,9.4
		c2.5,2.5,5.9,3.9,9.4,3.9s6.9-1.4,9.4-3.9c2.5-2.5,3.9-5.9,3.9-9.4c0-3.6-1.4-6.9-3.9-9.4C20.2,356.9,16.9,355.6,13.3,355.6
		L13.3,355.6z M21.5,377.1c-2.2,2.2-5.1,3.4-8.2,3.4c-3.1,0-6-1.2-8.2-3.4c-2.2-2.2-3.4-5.1-3.4-8.2c0-3.1,1.2-6,3.4-8.2
		c2.2-2.2,5.1-3.4,8.2-3.4c3.1,0,6,1.2,8.2,3.4c2.2,2.2,3.4,5.1,3.4,8.2C25,372,23.7,374.9,21.5,377.1L21.5,377.1z"/>
	<path fill="#FFFFFF" d="M17.4,368.6l-3.3-8.3c-0.1-0.3-0.4-0.5-0.8-0.5s-0.6,0.2-0.8,0.5l-3.3,8.3c-0.1,0.2-0.1,0.4,0,0.6h0
		l3.3,8.3c0.1,0.3,0.4,0.5,0.8,0.5s0.6-0.2,0.8-0.5l3.3-8.3h0C17.5,369,17.5,368.8,17.4,368.6L17.4,368.6z M13.3,362.8l2.1,5.2h-4.2
		L13.3,362.8L13.3,362.8z M13.3,375l-2.1-5.2h4.2L13.3,375L13.3,375z"/>
</g>
<g>
	<path fill="#FFFFFF" d="M41.2,378h5v3.3c0,0.5,0.4,0.8,0.8,0.8h13.3c0.5,0,0.8-0.4,0.8-0.8V378h5c0.5,0,0.8-0.4,0.8-0.8v-13.3
		c0-0.5-0.4-0.8-0.8-0.8h-5v-6.7c0-0.5-0.4-0.8-0.8-0.8H47c-0.5,0-0.8,0.4-0.8,0.8v6.7h-5c-0.5,0-0.8,0.4-0.8,0.8v13.3
		C40.3,377.6,40.7,378,41.2,378L41.2,378z M59.5,380.5H47.8v-8.3h11.6V380.5L59.5,380.5z M47.8,357.2h11.6v5.8H47.8V357.2
		L47.8,357.2z M42,364.7h23.3v11.6h-4.2v-5c0-0.5-0.4-0.8-0.8-0.8H47c-0.5,0-0.8,0.4-0.8,0.8v5H42L42,364.7L42,364.7z"/>
	<path fill="#FFFFFF" d="M45.1,366.2c-0.3-0.3-0.9-0.3-1.2,0c-0.2,0.2-0.2,0.4-0.2,0.6c0,0.2,0.1,0.4,0.2,0.6
		c0.2,0.2,0.4,0.2,0.6,0.2c0.2,0,0.4-0.1,0.6-0.2c0.2-0.1,0.2-0.4,0.2-0.6C45.3,366.6,45.2,366.4,45.1,366.2L45.1,366.2z"/>
	<path fill="#FFFFFF" d="M47,367.6c0.2,0,0.4-0.1,0.6-0.2c0.2-0.1,0.2-0.4,0.2-0.6s-0.1-0.4-0.2-0.6c-0.3-0.3-0.9-0.3-1.2,0
		c-0.2,0.2-0.2,0.4-0.2,0.6c0,0.2,0.1,0.4,0.2,0.6C46.5,367.5,46.8,367.6,47,367.6L47,367.6z"/>
	<path fill="#FFFFFF" d="M57.8,373.9h-8.3c-0.5,0-0.8,0.4-0.8,0.8s0.4,0.8,0.8,0.8h8.3c0.5,0,0.8-0.4,0.8-0.8
		C58.6,374.2,58.3,373.9,57.8,373.9L57.8,373.9z"/>
	<path fill="#FFFFFF" d="M57.8,377.2h-8.3c-0.5,0-0.8,0.4-0.8,0.8c0,0.5,0.4,0.8,0.8,0.8h8.3c0.5,0,0.8-0.4,0.8-0.8
		C58.6,377.6,58.3,377.2,57.8,377.2L57.8,377.2z"/>
</g>
<polygon fill="#4C2F83" points="12.8,560.6 20,565.3 12.8,570 "/>
<path fill="#FFFFFF" d="M53,577.4c-5.9-5.9-5.9-15.5,0-21.4c5.9-5.9,15.5-5.9,21.4,0c5.9,5.9,5.9,15.5,0,21.4
	C68.5,583.3,58.9,583.3,53,577.4L53,577.4z M72.4,557.9c-4.8-4.8-12.7-4.8-17.5,0c-4.8,4.8-4.8,12.7,0,17.5c4.8,4.8,12.7,4.8,17.5,0
	C77.2,570.6,77.2,562.8,72.4,557.9L72.4,557.9z"/>
<polygon fill="#FFFFFF" points="61.3,562 68.6,566.7 61.3,571.4 "/>
<polygon fill="#FED800" points="369.9,113.8 387.8,124.3 369.9,134.7 "/>
<rect x="418.1" y="116.8" fill="#FED800" width="3.6" height="16.4"/>
<path d="M453.2,129.5h3.6l5.6,5.6c0.1,0.1,0.3,0.2,0.5,0.2c0.1,0,0.2,0,0.2,0c0.2-0.1,0.4-0.3,0.4-0.6v-19.3c0-0.3-0.2-0.5-0.4-0.6
	c-0.2-0.1-0.5,0-0.7,0.1l-5.6,5.6h-3.6c-0.4,0-0.6,0.3-0.6,0.6v7.7C452.5,129.2,452.8,129.5,453.2,129.5L453.2,129.5z M453.8,121.8
	h3.2c0.2,0,0.3-0.1,0.5-0.2l4.7-4.7v16.2l-4.7-4.7c-0.1-0.1-0.3-0.2-0.5-0.2h-3.2V121.8L453.8,121.8z"/>
<path d="M464.9,128.4c0.1,0.1,0.3,0.2,0.5,0.2c0.2,0,0.3-0.1,0.5-0.2l2.4-2.4l2.4,2.4c0.1,0.1,0.3,0.2,0.5,0.2
	c0.2,0,0.3-0.1,0.5-0.2c0.2-0.3,0.2-0.7,0-0.9l-2.4-2.4l2.4-2.4c0.2-0.3,0.2-0.7,0-0.9c-0.3-0.3-0.7-0.3-0.9,0l-2.4,2.4l-2.4-2.4
	c-0.2-0.3-0.7-0.3-0.9,0s-0.3,0.7,0,0.9l2.4,2.4l-2.4,2.4C464.7,127.7,464.7,128.1,464.9,128.4L464.9,128.4z"/>
<path d="M500.7,129.5h3.6l5.6,5.6c0.1,0.1,0.3,0.2,0.5,0.2c0.1,0,0.2,0,0.2,0c0.2-0.1,0.4-0.3,0.4-0.6v-19.3c0-0.3-0.1-0.5-0.4-0.6
	c-0.2-0.1-0.5,0-0.7,0.1l-5.6,5.6h-3.6c-0.4,0-0.6,0.3-0.6,0.6v7.7C500.1,129.2,500.4,129.5,500.7,129.5L500.7,129.5z M501.4,121.8
	h3.2c0.2,0,0.3-0.1,0.5-0.2l4.7-4.7v16.2l-4.7-4.7c-0.1-0.1-0.3-0.2-0.5-0.2h-3.2V121.8L501.4,121.8z"/>
<path d="M512.9,127.6c-0.4,0-0.6,0.3-0.6,0.6c0,0.4,0.3,0.6,0.6,0.6c2.1,0,3.9-1.7,3.9-3.9s-1.7-3.9-3.9-3.9c-0.4,0-0.6,0.3-0.6,0.6
	c0,0.4,0.3,0.6,0.6,0.6c1.4,0,2.6,1.2,2.6,2.6C515.5,126.4,514.4,127.6,512.9,127.6L512.9,127.6z"/>
<path d="M545.4,129.5h3.6l5.6,5.6c0.1,0.1,0.3,0.2,0.5,0.2c0.1,0,0.2,0,0.2,0c0.2-0.1,0.4-0.3,0.4-0.6v-19.3c0-0.3-0.2-0.5-0.4-0.6
	c-0.2-0.1-0.5,0-0.7,0.1l-5.6,5.6h-3.6c-0.4,0-0.6,0.3-0.6,0.6v7.7C544.8,129.2,545,129.5,545.4,129.5L545.4,129.5z M546,121.8h3.2
	c0.2,0,0.3-0.1,0.5-0.2l4.7-4.7v16.2l-4.7-4.7c-0.1-0.1-0.3-0.2-0.5-0.2H546V121.8L546,121.8z"/>
<path d="M557.6,127.6c-0.4,0-0.6,0.3-0.6,0.6c0,0.4,0.3,0.6,0.6,0.6c2.1,0,3.9-1.7,3.9-3.9s-1.7-3.9-3.9-3.9c-0.4,0-0.6,0.3-0.6,0.6
	c0,0.4,0.3,0.6,0.6,0.6c1.4,0,2.6,1.2,2.6,2.6S559,127.6,557.6,127.6L557.6,127.6z"/>
<path d="M557.6,132.1c3.9,0,7.1-3.2,7.1-7.1c0-3.9-3.2-7.1-7.1-7.1c-0.4,0-0.6,0.3-0.6,0.6s0.3,0.6,0.6,0.6c3.2,0,5.8,2.6,5.8,5.8
	c0,3.2-2.6,5.8-5.8,5.8c-0.4,0-0.6,0.3-0.6,0.6C557,131.8,557.2,132.1,557.6,132.1L557.6,132.1z"/>
<g>
	<path fill="#FFFFFF" d="M550.1,73.5c0-4.2,3.4-7.6,7.6-7.6s7.6,3.4,7.6,7.6c0,4.2-3.4,7.6-7.6,7.6
		C553.5,81.1,550.1,77.7,550.1,73.5L550.1,73.5z M551.8,73.5c0,3.2,2.6,5.9,5.9,5.9c3.2,0,5.9-2.6,5.9-5.9s-2.6-5.9-5.9-5.9
		C554.4,67.6,551.8,70.3,551.8,73.5L551.8,73.5z"/>
	
		<rect x="549" y="77.4" transform="matrix(0.7063 0.7079 -0.7079 0.7063 219.0166 -365.4562)" fill="#FFFFFF" width="1.9" height="7.6"/>
</g>
<polygon fill="#B7A57A" points="632.9,236.4 478.8,236.4 464.8,282.4 632.9,282.4 "/>
<polygon fill="#B7A57A" points="466.8,398 616.6,398 620.8,390.2 466.8,390.2 "/>
<polygon fill="#666666" points="614.2,303.8 478.8,303.8 466.8,347.8 614.2,347.8 "/>
<rect x="166.7" y="496.3" fill="#FFFFFF" width="13.6" height="2.6"/>
<rect x="177.7" y="496.3" fill="#FFFFFF" width="2.6" height="13.6"/>
<rect x="166.7" y="501.9" transform="matrix(0.707 -0.7072 0.7072 0.707 -305.0572 270.1147)" fill="#FFFFFF" width="13.6" height="2.6"/>
<g>
	
		<rect x="205.9" y="498.9" transform="matrix(0.7071 -0.7071 0.7071 0.7071 -291.9537 295.0807)" fill="#616264" width="8.7" height="2.2"/>
	
		<rect x="213.8" y="495.6" transform="matrix(0.7071 -0.7071 0.7071 0.7071 -290.5795 298.3619)" fill="#616264" width="2.2" height="8.7"/>
	<rect x="211.5" y="498.5" fill="#616264" width="2.2" height="11.2"/>
</g>
<rect x="117.4" y="496.3" fill="#4C2F83" width="13.6" height="2.6"/>
<rect x="128.4" y="496.3" fill="#4C2F83" width="2.6" height="13.6"/>
<rect x="58.7" y="496.9" transform="matrix(0.7073 0.7069 -0.7069 0.7073 371.3451 99.5315)" fill="#FFFFFF" width="13.6" height="2.6"/>
<rect x="58.7" y="504.6" transform="matrix(-0.707 0.7072 -0.7072 -0.707 469.5349 817.3376)" fill="#FFFFFF" width="13.6" height="2.6"/>
<path fill="#8C8C8C" d="M706.6,0.7l1,0.1l-8.5,30.9l-1-0.1L706.6,0.7L706.6,0.7z"/>
<g>
	<line fill="none" stroke="#E6E7E8" stroke-width="0.5" stroke-miterlimit="10" x1="422.3" y1="580.4" x2="473.9" y2="452.2"/>
	<line fill="none" stroke="#E6E7E8" stroke-width="0.5" stroke-miterlimit="10" x1="425.8" y1="580.4" x2="477.4" y2="452.2"/>
	<line fill="none" stroke="#E6E7E8" stroke-width="0.5" stroke-miterlimit="10" x1="429.3" y1="580.3" x2="480.9" y2="452.2"/>
	<line fill="none" stroke="#E6E7E8" stroke-width="0.5" stroke-miterlimit="10" x1="432.8" y1="580.4" x2="484.4" y2="452.2"/>
	<line fill="none" stroke="#E6E7E8" stroke-width="0.5" stroke-miterlimit="10" x1="436.3" y1="580.4" x2="487.9" y2="452.2"/>
	<line fill="none" stroke="#E6E7E8" stroke-width="0.5" stroke-miterlimit="10" x1="439.8" y1="580.4" x2="491.4" y2="452.2"/>
	<line fill="none" stroke="#E6E7E8" stroke-width="0.5" stroke-miterlimit="10" x1="443.3" y1="580.4" x2="494.9" y2="452.2"/>
	<line fill="none" stroke="#E6E7E8" stroke-width="0.5" stroke-miterlimit="10" x1="446.8" y1="580.4" x2="498.5" y2="452.2"/>
	<line fill="none" stroke="#E6E7E8" stroke-width="0.5" stroke-miterlimit="10" x1="450.4" y1="580.4" x2="502" y2="452.2"/>
	<line fill="none" stroke="#E6E7E8" stroke-width="0.5" stroke-miterlimit="10" x1="453.9" y1="580.4" x2="505.5" y2="452.2"/>
	<line fill="none" stroke="#E6E7E8" stroke-width="0.5" stroke-miterlimit="10" x1="457.4" y1="580.4" x2="509" y2="452.2"/>
	<line fill="none" stroke="#E6E7E8" stroke-width="0.5" stroke-miterlimit="10" x1="460.9" y1="580.4" x2="512.5" y2="452.2"/>
	<line fill="none" stroke="#E6E7E8" stroke-width="0.5" stroke-miterlimit="10" x1="464.4" y1="580.4" x2="516" y2="452.2"/>
	<line fill="none" stroke="#E6E7E8" stroke-width="0.5" stroke-miterlimit="10" x1="467.9" y1="580.4" x2="519.5" y2="452.2"/>
	<line fill="none" stroke="#E6E7E8" stroke-width="0.5" stroke-miterlimit="10" x1="471.4" y1="580.4" x2="523" y2="452.2"/>
	<line fill="none" stroke="#E6E7E8" stroke-width="0.5" stroke-miterlimit="10" x1="474.9" y1="580.4" x2="526.5" y2="452.2"/>
	<line fill="none" stroke="#E6E7E8" stroke-width="0.5" stroke-miterlimit="10" x1="478.4" y1="580.4" x2="530" y2="452.2"/>
	<line fill="none" stroke="#E6E7E8" stroke-width="0.5" stroke-miterlimit="10" x1="481.9" y1="580.4" x2="533.5" y2="452.2"/>
	<line fill="none" stroke="#E6E7E8" stroke-width="0.5" stroke-miterlimit="10" x1="485.5" y1="580.4" x2="537.1" y2="452.2"/>
	<line fill="none" stroke="#E6E7E8" stroke-width="0.5" stroke-miterlimit="10" x1="489" y1="580.4" x2="540.6" y2="452.2"/>
	<line fill="none" stroke="#E6E7E8" stroke-width="0.5" stroke-miterlimit="10" x1="492.5" y1="580.4" x2="544.1" y2="452.2"/>
	<line fill="none" stroke="#E6E7E8" stroke-width="0.5" stroke-miterlimit="10" x1="496" y1="580.4" x2="547.6" y2="452.2"/>
	<line fill="none" stroke="#E6E7E8" stroke-width="0.5" stroke-miterlimit="10" x1="499.5" y1="580.4" x2="551.1" y2="452.2"/>
	<line fill="none" stroke="#E6E7E8" stroke-width="0.5" stroke-miterlimit="10" x1="503" y1="580.4" x2="554.6" y2="452.2"/>
	<line fill="none" stroke="#E6E7E8" stroke-width="0.5" stroke-miterlimit="10" x1="506.5" y1="580.4" x2="558.1" y2="452.2"/>
	<line fill="none" stroke="#E6E7E8" stroke-width="0.5" stroke-miterlimit="10" x1="510" y1="580.4" x2="561.6" y2="452.2"/>
	<line fill="none" stroke="#E6E7E8" stroke-width="0.5" stroke-miterlimit="10" x1="513.5" y1="580.4" x2="565.1" y2="452.2"/>
	<line fill="none" stroke="#E6E7E8" stroke-width="0.5" stroke-miterlimit="10" x1="517" y1="580.4" x2="568.7" y2="452.2"/>
	<line fill="none" stroke="#E6E7E8" stroke-width="0.5" stroke-miterlimit="10" x1="520.6" y1="580.4" x2="572.2" y2="452.2"/>
	<line fill="none" stroke="#E6E7E8" stroke-width="0.5" stroke-miterlimit="10" x1="524.1" y1="580.4" x2="575.7" y2="452.2"/>
	<line fill="none" stroke="#E6E7E8" stroke-width="0.5" stroke-miterlimit="10" x1="527.6" y1="580.4" x2="579.2" y2="452.2"/>
	<line fill="none" stroke="#E6E7E8" stroke-width="0.5" stroke-miterlimit="10" x1="531.1" y1="580.4" x2="582.7" y2="452.2"/>
	<line fill="none" stroke="#E6E7E8" stroke-width="0.5" stroke-miterlimit="10" x1="534.6" y1="580.4" x2="586.2" y2="452.2"/>
	<line fill="none" stroke="#E6E7E8" stroke-width="0.5" stroke-miterlimit="10" x1="538.1" y1="580.4" x2="589.7" y2="452.2"/>
	<line fill="none" stroke="#E6E7E8" stroke-width="0.5" stroke-miterlimit="10" x1="541.6" y1="580.4" x2="593.2" y2="452.2"/>
	<line fill="none" stroke="#E6E7E8" stroke-width="0.5" stroke-miterlimit="10" x1="545.1" y1="580.4" x2="596.7" y2="452.2"/>
	<line fill="none" stroke="#E6E7E8" stroke-width="0.5" stroke-miterlimit="10" x1="548.6" y1="580.4" x2="600.2" y2="452.2"/>
	<line fill="none" stroke="#E6E7E8" stroke-width="0.5" stroke-miterlimit="10" x1="552.2" y1="580.4" x2="603.8" y2="452.2"/>
	<line fill="none" stroke="#E6E7E8" stroke-width="0.5" stroke-miterlimit="10" x1="555.7" y1="580.4" x2="607.3" y2="452.2"/>
	<line fill="none" stroke="#E6E7E8" stroke-width="0.5" stroke-miterlimit="10" x1="559.2" y1="580.4" x2="610.8" y2="452.2"/>
	<line fill="none" stroke="#E6E7E8" stroke-width="0.5" stroke-miterlimit="10" x1="562.7" y1="580.4" x2="614.3" y2="452.2"/>
	<line fill="none" stroke="#E6E7E8" stroke-width="0.5" stroke-miterlimit="10" x1="566.2" y1="580.4" x2="617.8" y2="452.2"/>
	<line fill="none" stroke="#E6E7E8" stroke-width="0.5" stroke-miterlimit="10" x1="569.7" y1="580.4" x2="621.3" y2="452.2"/>
	<line fill="none" stroke="#E6E7E8" stroke-width="0.5" stroke-miterlimit="10" x1="573.2" y1="580.4" x2="624.8" y2="452.2"/>
	<line fill="none" stroke="#E6E7E8" stroke-width="0.5" stroke-miterlimit="10" x1="576.7" y1="580.4" x2="628.3" y2="452.2"/>
	<line fill="none" stroke="#E6E7E8" stroke-width="0.5" stroke-miterlimit="10" x1="580.2" y1="580.4" x2="631.8" y2="452.2"/>
	<line fill="none" stroke="#E6E7E8" stroke-width="0.5" stroke-miterlimit="10" x1="583.7" y1="580.4" x2="635.3" y2="452.2"/>
	<line fill="none" stroke="#E6E7E8" stroke-width="0.5" stroke-miterlimit="10" x1="587.2" y1="580.4" x2="638.9" y2="452.2"/>
	<line fill="none" stroke="#E6E7E8" stroke-width="0.5" stroke-miterlimit="10" x1="590.8" y1="580.4" x2="642.4" y2="452.2"/>
	<line fill="none" stroke="#E6E7E8" stroke-width="0.5" stroke-miterlimit="10" x1="594.3" y1="580.4" x2="645.9" y2="452.2"/>
	<line fill="none" stroke="#E6E7E8" stroke-width="0.5" stroke-miterlimit="10" x1="597.8" y1="580.4" x2="649.4" y2="452.2"/>
	<line fill="none" stroke="#E6E7E8" stroke-width="0.5" stroke-miterlimit="10" x1="601.3" y1="580.4" x2="652.9" y2="452.2"/>
	<line fill="none" stroke="#E6E7E8" stroke-width="0.5" stroke-miterlimit="10" x1="604.8" y1="580.4" x2="656.4" y2="452.2"/>
	<line fill="none" stroke="#E6E7E8" stroke-width="0.5" stroke-miterlimit="10" x1="608.3" y1="580.4" x2="659.9" y2="452.2"/>
	<line fill="none" stroke="#E6E7E8" stroke-width="0.5" stroke-miterlimit="10" x1="611.8" y1="580.4" x2="663.4" y2="452.2"/>
	<line fill="none" stroke="#E6E7E8" stroke-width="0.5" stroke-miterlimit="10" x1="615.3" y1="580.4" x2="666.9" y2="452.2"/>
	<line fill="none" stroke="#E6E7E8" stroke-width="0.5" stroke-miterlimit="10" x1="618.8" y1="580.4" x2="670.5" y2="452.2"/>
	<line fill="none" stroke="#E6E7E8" stroke-width="0.5" stroke-miterlimit="10" x1="622.3" y1="580.4" x2="674" y2="452.2"/>
	<line fill="none" stroke="#E6E7E8" stroke-width="0.5" stroke-miterlimit="10" x1="625.9" y1="580.4" x2="677.5" y2="452.2"/>
	<line fill="none" stroke="#E6E7E8" stroke-width="0.5" stroke-miterlimit="10" x1="629.4" y1="580.4" x2="681" y2="452.2"/>
	<line fill="none" stroke="#E6E7E8" stroke-width="0.5" stroke-miterlimit="10" x1="632.9" y1="580.4" x2="684.5" y2="452.2"/>
	<line fill="none" stroke="#E6E7E8" stroke-width="0.5" stroke-miterlimit="10" x1="636.4" y1="580.4" x2="688" y2="452.2"/>
	<line fill="none" stroke="#E6E7E8" stroke-width="0.5" stroke-miterlimit="10" x1="639.9" y1="580.4" x2="691.5" y2="452.2"/>
	<line fill="none" stroke="#E6E7E8" stroke-width="0.5" stroke-miterlimit="10" x1="643.4" y1="580.4" x2="695" y2="452.2"/>
	<line fill="none" stroke="#E6E7E8" stroke-width="0.5" stroke-miterlimit="10" x1="646.9" y1="580.4" x2="698.5" y2="452.2"/>
	<line fill="none" stroke="#E6E7E8" stroke-width="0.5" stroke-miterlimit="10" x1="650.4" y1="580.4" x2="702" y2="452.2"/>
	<line fill="none" stroke="#E6E7E8" stroke-width="0.5" stroke-miterlimit="10" x1="653.9" y1="580.4" x2="705.5" y2="452.2"/>
	<line fill="none" stroke="#E6E7E8" stroke-width="0.5" stroke-miterlimit="10" x1="657.5" y1="580.4" x2="709.1" y2="452.2"/>
	<line fill="none" stroke="#E6E7E8" stroke-width="0.5" stroke-miterlimit="10" x1="661" y1="580.4" x2="712.6" y2="452.2"/>
	<line fill="none" stroke="#E6E7E8" stroke-width="0.5" stroke-miterlimit="10" x1="664.5" y1="580.4" x2="716.1" y2="452.2"/>
	<line fill="none" stroke="#E6E7E8" stroke-width="0.5" stroke-miterlimit="10" x1="668" y1="580.4" x2="719.6" y2="452.2"/>
	<line fill="none" stroke="#E6E7E8" stroke-width="0.5" stroke-miterlimit="10" x1="671.5" y1="580.4" x2="723.1" y2="452.2"/>
</g>
<polygon fill="#FFFFFF" points="482.1,8.7 482.1,8.7 488,2.5 486.3,0.9 480.5,7.1 474.7,0.9 473,2.5 478.9,8.7 478.9,8.7 478.9,8.7 
	473,14.9 474.7,16.5 480.5,10.4 486.3,16.5 488,14.9 482.1,8.7 "/>
<polygon fill="#85754D" points="632.9,236.4 591,236.4 574.9,282.4 632.9,282.4 "/>
<polygon fill="#746041" points="593.3,236.4 591,236.4 574.9,282.4 577.3,282.4 "/>
<rect x="436.4" y="76.8" transform="matrix(0.7071 -0.7071 0.7071 0.7071 76.7461 340.4259)" fill="#666666" width="25.9" height="1.5"/>
<rect x="436.3" y="76.8" transform="matrix(0.7071 0.7071 -0.7071 0.7071 186.4367 -294.978)" fill="#666666" width="25.9" height="1.5"/>
<path fill="#FFFFFF" d="M384.9,256.4c-0.7,0.3-1.3,0.5-1.8,0.7s-1.1,0.2-1.8,0.2c-0.7,0-1.1-0.1-1.7-0.3c-0.6-0.2-1-0.4-1.4-0.8
	c-0.4-0.3-0.7-0.7-0.8-1.1c-0.2-0.4-0.2-0.9-0.2-1.7v-5.6h-2.1v-2.2c0.6-0.2,1.3-0.5,1.8-0.9c0.4-0.4,0.8-0.8,1.1-1.4
	c0.3-0.5,0.5-1.2,0.6-2h2.2v3.7h3.7v2.8h-3.7v4.1c0,0.9,0,1.5,0.1,1.7c0.1,0.3,0.3,0.5,0.6,0.7c0.4,0.2,0.7,0.3,1.2,0.3
	c0.8,0,1.6-0.3,2.4-0.8L384.9,256.4L384.9,256.4z"/>
<path fill="#FFFFFF" d="M367.1,196.7v25.5h25.5v-25.5H367.1z M384.9,216.5c-0.7,0.3-1.3,0.5-1.8,0.7s-1.1,0.2-1.8,0.2
	c-0.7,0-1.1-0.1-1.7-0.3c-0.6-0.2-1-0.4-1.4-0.8c-0.4-0.3-0.7-0.7-0.8-1.1c-0.2-0.4-0.2-0.9-0.2-1.7V208h-2.1v-2.2
	c0.6-0.2,1.3-0.5,1.8-0.9c0.4-0.4,0.8-0.8,1.1-1.4c0.3-0.5,0.5-1.2,0.6-2h2.2v3.7h3.7v2.8h-3.7v4.1c0,0.9,0,1.5,0.1,1.7
	c0.1,0.3,0.3,0.5,0.6,0.7c0.4,0.2,0.7,0.3,1.2,0.3c0.8,0,1.6-0.3,2.4-0.8L384.9,216.5L384.9,216.5z"/>
<path fill="#FFFFFF" d="M277.8,314.4l-0.1-0.9c-1.1,0-2-0.2-2.7-0.4c-0.3,0.3-1.1,0.9-2.1,1.4C274.1,314.6,275.7,314.6,277.8,314.4
	L277.8,314.4z M271.6,310.3c-1.2,0.6-2.7,0.8-3.8,0.9c0.3,0.4,0.6,0.8,1,1.2c1.5-0.3,2.7-0.9,3.4-1.2
	C271.9,310.8,271.8,310.6,271.6,310.3L271.6,310.3z M272.1,309.2c0.1,0.1,0.3,0.2,0.3,0.3c0,0.1,0.7,2.8,5.3,3l0,0
	c0,0-1.6-0.7-1.4-2.9c0.2-2.2-1.4-3.5-3.2-2.3c-1.8,1.2-3.8,1.6-5,1.4c-1.2-0.2-2.1,0.2-1.3,1.2c0.1,0.2,0.3,0.3,0.4,0.5
	c1.1,0,3.1-0.1,4.5-1C271.8,309.1,271.9,309.1,272.1,309.2L272.1,309.2z M272.9,311.9c-0.5,0.3-1.7,0.9-3.2,1.3
	c0.5,0.4,1,0.7,1.7,0.9c1.1-0.5,2-1.1,2.5-1.5C273.5,312.4,273.2,312.1,272.9,311.9L272.9,311.9z M284.9,312.6
	c0.5,0.4,1.4,1,2.5,1.5c0.7-0.2,1.2-0.5,1.7-0.9c-1.5-0.4-2.7-1-3.2-1.3C285.7,312.1,285.3,312.3,284.9,312.6L284.9,312.6z
	 M286.7,311.2c0.6,0.3,1.8,0.9,3.4,1.2c0.3-0.4,0.7-0.8,1-1.2c-1.1,0-2.6-0.3-3.8-0.9C287.1,310.5,286.9,310.8,286.7,311.2
	L286.7,311.2z M290.8,308.6c-1.2,0.2-3.2-0.2-5-1.4c-1.8-1.1-3.4,0.2-3.2,2.3c0.2,2.2-1.4,2.9-1.4,2.9l0,0c4.5-0.2,5.3-2.8,5.3-3
	c0-0.2,0.1-0.3,0.3-0.3c0.1-0.1,0.3,0,0.5,0c1.4,0.9,3.3,1.1,4.5,1c0.1-0.2,0.2-0.3,0.4-0.5C293,308.7,292,308.4,290.8,308.6
	L290.8,308.6z M281.1,313.4l-0.1,0.9c2.1,0.3,3.7,0.3,4.9,0.1c-1-0.6-1.8-1.1-2.1-1.4C283.1,313.2,282.2,313.4,281.1,313.4
	L281.1,313.4z M282.8,316.2c-0.7-0.3-1.5-0.1-1.7,0.5s0.2,1.2,1,1.5c0.3,0.1,0.6,0.1,0.8,0.1c-0.1,0.8-0.6,1.8-2.6,2.5
	c-0.1,0.1-0.3,0.1-0.4,0.2l0.2-10.3c0.8-0.3,1.4-1.1,1.4-2c0-1.1-0.9-2.1-2.1-2.1c-1.1,0-2.1,0.9-2.1,2.1c0,0.9,0.6,1.6,1.3,1.9
	l0.2,10.4c-0.2-0.1-0.4-0.1-0.5-0.2c-2-0.7-2.5-1.8-2.6-2.5c0.3,0,0.5,0,0.8-0.1c0.7-0.3,1.2-0.9,1-1.5c-0.2-0.5-1-0.8-1.7-0.5
	c-0.5,0.2-0.9,0.6-1,0.9c-0.9,1.4,0.1,3.7,4.1,5.1l0.1,3.7c-1.4-0.7-1.8-1.3-1.8-1.8c0-0.6,1-1.2,1-1.2l-1-0.5c0,0-0.7,0.3-0.7,1.6
	c0,1.2,1.2,2,2.5,2.6l0.1,3.5c-0.3-0.2-1.2-0.9-1.2-1.7c0-0.4,0.3-0.8,0.6-1.1L278,327c-0.4,0.5-0.5,0.9-0.5,1.2
	c0,0.5,0.2,1.5,1.6,1.9l0,2.1c0,0.1,0.1,0.2,0.2,0.2c0.1,0,0.2-0.1,0.2-0.2l0-2.1c1.4-0.3,1.6-1.3,1.6-1.9c0-0.5-0.1-1.1-1.2-1.8
	c3.3-1.8,2.6-3.4,0.5-4.6c3.1-1.4,4-3.4,3.1-4.7C283.7,316.8,283.3,316.4,282.8,316.2L282.8,316.2z M280.8,328.4
	c0,0.8-0.9,1.5-1.2,1.7l0.1-3.2C280.3,327.3,280.8,327.8,280.8,328.4L280.8,328.4z M279.7,326l0.1-3.4
	C283.2,323.9,280.7,325.4,279.7,326L279.7,326z"/>
</svg>
